<svg width="230" height="40" viewBox="0 0 230 40" fill="none" xmlns="http://www.w3.org/2000/svg">
<path d="M4.38462 7.9625L0 5.38639V13.466L4.5 16.1592L9 13.466V18.8524L13.2692 21.4285L22.5 16.1592L27 18.8524V5.38639L13.2692 13.1147L9 10.6557L13.2692 7.9625L9 5.38639L4.38462 7.9625Z" fill="#95B7F7"/>
<path d="M18.1154 5.38639V0L13.2692 2.6932L18.1154 5.38639Z" fill="#95B7F7"/>
<path d="M27 27.0491L13.2692 35.0116L0 27.0491V19.3208L13.2692 27.5174L27 19.3208V27.0491Z" fill="#95B7F7"/>
<path d="M72.504 5.216H67.512V13.792H58.2V5.216H53.208V28H58.2V18.176H67.512V28H72.504V5.216ZM87.2308 4.672C80.4148 4.672 75.9348 9.408 75.9348 16.64C75.9348 23.776 80.4468 28.544 87.1988 28.544C93.8868 28.544 98.3988 23.744 98.3988 16.64C98.3988 9.504 93.8868 4.672 87.2308 4.672ZM87.1668 8.768C90.9748 8.768 93.3428 11.744 93.3428 16.544C93.3428 21.408 91.0068 24.416 87.2308 24.416C83.3588 24.384 80.9908 21.44 80.9908 16.544C80.9908 11.808 83.3908 8.768 87.1668 8.768ZM115.561 5.216H110.569V20.704C110.569 22.72 110.409 24.512 107.913 24.512C105.065 24.512 105.065 22.304 105.065 20.192V19.488H100.457V20.992C100.457 26.176 103.401 28.544 108.073 28.544C113.097 28.544 115.561 25.856 115.561 20.864V5.216ZM124.638 5.216H119.614V28H124.638V5.216ZM138.172 17.248H128.54V21.312H138.172V17.248ZM158.147 5.216H142.083V28H147.075V18.656H156.707V14.688H147.075V9.408H158.147V5.216ZM180.444 5.216H175.452V18.848C175.452 22.208 174.652 24.32 170.812 24.32C166.908 24.32 165.916 22.336 165.916 18.848V5.216H160.924V18.848C160.924 25.344 163.964 28.448 170.748 28.448C177.404 28.448 180.444 25.408 180.444 18.912V5.216ZM184.771 28H189.603V12.704L199.043 28H204.035V5.216H199.235V20.48L189.859 5.216H184.771V28ZM208.521 28H217.737C224.809 28 228.777 23.936 228.777 16.608C228.777 9.248 224.809 5.216 217.737 5.216H208.521V28ZM213.481 23.84V9.376H217.129C221.641 9.376 223.753 12.032 223.753 16.608C223.753 21.184 221.705 23.84 217.129 23.84H213.481Z" fill="#282D32"/>
</svg>
