<svg width="116" height="37" viewBox="0 0 116 37" fill="none" xmlns="http://www.w3.org/2000/svg">
<path d="M4.38462 8.95664L0 6.38053V14.4601L4.5 17.1533L9 14.4601V19.8465L13.2692 22.4226L22.5 17.1533L27 19.8465V6.38053L13.2692 14.1088L9 11.6498L13.2692 8.95664L9 6.38053L4.38462 8.95664Z" fill="#95B7F7"/>
<path d="M18.1154 6.38053V0.994141L13.2692 3.68734L18.1154 6.38053Z" fill="#95B7F7"/>
<path d="M27 28.0432L13.2692 36.0057L0 28.0432V20.3149L13.2692 28.5116L27 20.3149V28.0432Z" fill="#95B7F7"/>
<path d="M48.376 10.684H47.17V16.264H39.502V10.684H38.278V23.5H39.502V17.308H47.17V23.5H48.376V10.684ZM54.6958 13.978C52.0138 13.978 50.2858 15.904 50.2858 18.874C50.2858 21.862 51.9958 23.77 54.6958 23.77C57.3778 23.77 59.0518 21.898 59.0518 18.91C59.0518 15.886 57.3598 13.978 54.6958 13.978ZM54.6778 14.932C56.6578 14.932 57.9178 16.48 57.9178 18.892C57.9178 21.304 56.6758 22.834 54.7138 22.834C52.6798 22.834 51.4378 21.304 51.4378 18.874C51.4378 16.48 52.7158 14.932 54.6778 14.932ZM61.9618 14.248H60.8458V24.22C60.8458 26.02 60.4318 26.074 59.6038 26.074C59.4598 26.074 59.3698 26.074 59.1718 26.056V26.992C59.4238 27.028 59.5318 27.046 59.7298 27.046C61.8178 27.046 61.9618 25.876 61.9618 24.112V14.248ZM61.9618 10.612H60.8458V12.466H61.9618V10.612ZM65.23 10.63H64.096V12.484H65.23V10.63ZM65.23 14.248H64.096V23.5H65.23V14.248Z" fill="#282D32"/>
<path d="M72.4583 17.596H67.1843V19.504H72.4583V17.596ZM83.5404 10.684H74.6664V23.5H76.9344V17.902H82.7304V16.084H76.9344V12.592H83.5404V10.684ZM93.2203 14.212H91.1683V19.126C91.1683 20.656 90.5743 22.024 88.9363 22.024C87.1903 22.024 87.1183 20.872 87.1183 19.522V14.212H85.0663V20.368C85.0663 22.546 86.1823 23.752 88.2343 23.752C89.5303 23.752 90.5023 23.23 91.2943 22.114V23.5H93.2203V14.212ZM97.3643 14.212H95.4203V23.5H97.4723V18.496C97.4723 16.354 98.4983 15.67 99.7403 15.67C101.378 15.67 101.54 16.822 101.54 18.1V23.5H103.592V17.308C103.592 15.202 102.584 13.96 100.442 13.96C99.0563 13.96 98.1383 14.464 97.3643 15.58V14.212ZM114.54 10.684H112.524V15.418C111.876 14.464 110.886 13.96 109.572 13.96C106.998 13.96 105.36 15.85 105.36 18.838C105.36 21.844 107.016 23.752 109.644 23.752C111.03 23.752 112.038 23.23 112.614 22.222V23.5H114.54V10.684ZM109.95 15.616C111.606 15.616 112.578 16.804 112.578 18.838C112.578 20.89 111.624 22.096 110.022 22.096C108.42 22.096 107.43 20.836 107.43 18.802C107.43 16.822 108.402 15.616 109.95 15.616Z" fill="#95B7F7"/>
</svg>
