<svg width="16" height="16" viewBox="0 0 16 16" fill="none" xmlns="http://www.w3.org/2000/svg">
<path fill-rule="evenodd" clip-rule="evenodd" d="M0 13V1.5C0 1.10218 0.158035 0.720644 0.43934 0.43934C0.720644 0.158035 1.10218 0 1.5 0H13C13.2652 0 13.5196 0.105357 13.7071 0.292893C13.8946 0.48043 14 0.734784 14 1H1.5C1.36739 1 1.24021 1.05268 1.14645 1.14645C1.05268 1.24021 1 1.36739 1 1.5V14C0.734784 14 0.48043 13.8946 0.292893 13.7071C0.105357 13.5196 0 13.2652 0 13ZM2.43934 2.43934C2.72064 2.15804 3.10218 2 3.5 2H14.5C14.8978 2 15.2794 2.15804 15.5607 2.43934C15.842 2.72064 16 3.10218 16 3.5V9.586C15.9999 9.98355 15.842 10.3648 15.561 10.646L10.646 15.56C10.365 15.8414 9.98369 15.9997 9.586 16H3.5C3.10218 16 2.72064 15.842 2.43934 15.5607C2.15804 15.2794 2 14.8978 2 14.5V3.5C2 3.10218 2.15804 2.72064 2.43934 2.43934ZM9.79289 9.79289C9.60536 9.98043 9.5 10.2348 9.5 10.5V14.896C9.49991 14.9455 9.51453 14.9939 9.54199 15.0351C9.56945 15.0763 9.60853 15.1084 9.65427 15.1274C9.7 15.1464 9.75034 15.1513 9.7989 15.1416C9.84745 15.1319 9.89204 15.1081 9.927 15.073L15.073 9.927C15.1081 9.89204 15.1319 9.84745 15.1416 9.7989C15.1513 9.75034 15.1464 9.7 15.1274 9.65427C15.1084 9.60853 15.0763 9.56945 15.0351 9.54199C14.9939 9.51453 14.9455 9.49991 14.896 9.5H10.5C10.2348 9.5 9.98043 9.60536 9.79289 9.79289Z" fill="#95B7F7"/>
</svg>
