<svg width="1281" height="474" viewBox="0 0 1281 474" fill="none" xmlns="http://www.w3.org/2000/svg">
<path opacity="0.5" d="M1229.73 468.857V468.101H1233.24V468.857H1229.73ZM1238.52 465.509H1233.92V464.753H1239.81L1235.5 473.273H1234.57L1238.52 465.509ZM1243.04 468.005C1243.43 468.005 1243.79 468.073 1244.13 468.209C1244.46 468.337 1244.76 468.521 1245 468.761C1245.26 469.001 1245.46 469.289 1245.6 469.625C1245.75 469.953 1245.82 470.317 1245.82 470.717C1245.82 471.141 1245.74 471.525 1245.58 471.869C1245.43 472.221 1245.22 472.517 1244.94 472.757C1244.68 473.005 1244.37 473.197 1244.01 473.333C1243.65 473.469 1243.26 473.537 1242.86 473.537C1242.55 473.537 1242.26 473.497 1241.98 473.417C1241.71 473.345 1241.46 473.237 1241.22 473.093C1240.99 472.949 1240.78 472.777 1240.59 472.577C1240.4 472.377 1240.25 472.153 1240.13 471.905L1240.67 471.497C1240.9 471.889 1241.2 472.205 1241.58 472.445C1241.98 472.685 1242.4 472.805 1242.87 472.805C1243.16 472.805 1243.44 472.753 1243.7 472.649C1243.95 472.553 1244.18 472.413 1244.37 472.229C1244.56 472.045 1244.71 471.825 1244.81 471.569C1244.92 471.313 1244.98 471.033 1244.98 470.729C1244.98 470.433 1244.93 470.165 1244.82 469.925C1244.72 469.677 1244.58 469.465 1244.39 469.289C1244.21 469.113 1243.99 468.977 1243.74 468.881C1243.5 468.785 1243.23 468.737 1242.94 468.737C1242.56 468.737 1242.21 468.821 1241.87 468.989C1241.54 469.149 1241.28 469.385 1241.07 469.697H1240.31C1240.32 469.649 1240.34 469.541 1240.37 469.373C1240.4 469.205 1240.44 469.005 1240.49 468.773C1240.54 468.541 1240.59 468.285 1240.65 468.005C1240.7 467.717 1240.76 467.429 1240.82 467.141C1240.95 466.469 1241.1 465.721 1241.26 464.897H1245.38V465.653H1241.87L1241.28 468.713C1241.49 468.489 1241.74 468.317 1242.04 468.197C1242.34 468.069 1242.68 468.005 1243.04 468.005ZM1248.53 466.553C1248.28 466.553 1248.05 466.509 1247.82 466.421C1247.61 466.333 1247.42 466.213 1247.26 466.061C1247.1 465.901 1246.97 465.717 1246.88 465.509C1246.78 465.301 1246.73 465.077 1246.73 464.837C1246.73 464.597 1246.78 464.373 1246.88 464.165C1246.97 463.957 1247.1 463.777 1247.26 463.625C1247.42 463.465 1247.61 463.341 1247.82 463.253C1248.05 463.157 1248.28 463.109 1248.53 463.109C1248.78 463.109 1249.01 463.157 1249.23 463.253C1249.44 463.341 1249.63 463.465 1249.79 463.625C1249.96 463.777 1250.09 463.957 1250.18 464.165C1250.27 464.373 1250.32 464.597 1250.32 464.837C1250.32 465.077 1250.27 465.301 1250.18 465.509C1250.09 465.717 1249.96 465.901 1249.79 466.061C1249.63 466.213 1249.44 466.333 1249.23 466.421C1249.01 466.509 1248.78 466.553 1248.53 466.553ZM1248.53 466.085C1248.69 466.085 1248.84 466.053 1248.99 465.989C1249.13 465.917 1249.26 465.825 1249.36 465.713C1249.47 465.593 1249.56 465.461 1249.61 465.317C1249.68 465.165 1249.71 465.005 1249.71 464.837C1249.71 464.661 1249.68 464.497 1249.61 464.345C1249.55 464.193 1249.46 464.061 1249.35 463.949C1249.24 463.837 1249.12 463.749 1248.98 463.685C1248.83 463.621 1248.68 463.589 1248.53 463.589C1248.36 463.589 1248.21 463.625 1248.06 463.697C1247.92 463.761 1247.79 463.853 1247.68 463.973C1247.58 464.085 1247.49 464.217 1247.43 464.369C1247.37 464.513 1247.34 464.669 1247.34 464.837C1247.34 465.005 1247.38 465.165 1247.44 465.317C1247.5 465.469 1247.59 465.605 1247.69 465.725C1247.8 465.837 1247.93 465.925 1248.08 465.989C1248.22 466.053 1248.37 466.085 1248.53 466.085ZM1252.55 471.869C1252.3 471.869 1252.07 471.825 1251.86 471.737C1251.64 471.649 1251.45 471.529 1251.28 471.377C1251.12 471.217 1250.99 471.033 1250.9 470.825C1250.81 470.609 1250.76 470.381 1250.76 470.141C1250.76 469.901 1250.81 469.677 1250.9 469.469C1250.99 469.261 1251.12 469.081 1251.28 468.929C1251.45 468.769 1251.64 468.645 1251.86 468.557C1252.07 468.469 1252.3 468.425 1252.55 468.425C1252.8 468.425 1253.03 468.469 1253.25 468.557C1253.47 468.645 1253.66 468.769 1253.82 468.929C1253.98 469.081 1254.11 469.261 1254.21 469.469C1254.3 469.677 1254.35 469.901 1254.35 470.141C1254.35 470.381 1254.3 470.609 1254.21 470.825C1254.11 471.033 1253.98 471.217 1253.82 471.377C1253.66 471.529 1253.47 471.649 1253.25 471.737C1253.03 471.825 1252.8 471.869 1252.55 471.869ZM1252.55 471.389C1252.72 471.389 1252.87 471.357 1253.01 471.293C1253.15 471.221 1253.28 471.129 1253.38 471.017C1253.49 470.905 1253.58 470.773 1253.63 470.621C1253.7 470.469 1253.73 470.309 1253.73 470.141C1253.73 469.973 1253.7 469.813 1253.63 469.661C1253.57 469.509 1253.48 469.377 1253.37 469.265C1253.26 469.145 1253.14 469.053 1253 468.989C1252.85 468.925 1252.7 468.893 1252.55 468.893C1252.39 468.893 1252.24 468.929 1252.1 469.001C1251.95 469.065 1251.82 469.157 1251.71 469.277C1251.61 469.389 1251.52 469.521 1251.46 469.673C1251.4 469.817 1251.38 469.973 1251.38 470.141C1251.38 470.317 1251.41 470.481 1251.47 470.633C1251.54 470.785 1251.62 470.917 1251.72 471.029C1251.84 471.141 1251.96 471.229 1252.1 471.293C1252.24 471.357 1252.39 471.389 1252.55 471.389ZM1247.03 471.425L1250.38 467.345L1253.64 463.181L1254.06 463.541L1250.72 467.621L1247.44 471.797L1247.03 471.425Z" fill="#282D32"/>
<path opacity="0.5" d="M1229.73 407.348V406.592H1233.24V407.348H1229.73ZM1240.72 407.432C1240.72 407.84 1240.64 408.224 1240.48 408.584C1240.33 408.936 1240.12 409.244 1239.85 409.508C1239.58 409.772 1239.26 409.98 1238.89 410.132C1238.52 410.284 1238.12 410.36 1237.7 410.36C1237.25 410.36 1236.84 410.28 1236.46 410.12C1236.09 409.952 1235.76 409.716 1235.49 409.412C1235.23 409.108 1235.02 408.736 1234.87 408.296C1234.72 407.848 1234.64 407.348 1234.64 406.796C1234.64 405.932 1234.72 405.18 1234.87 404.54C1235.02 403.892 1235.23 403.356 1235.5 402.932C1235.78 402.5 1236.12 402.18 1236.5 401.972C1236.88 401.764 1237.31 401.66 1237.78 401.66C1238.35 401.66 1238.86 401.8 1239.31 402.08C1239.76 402.36 1240.1 402.748 1240.33 403.244L1239.8 403.724C1239.63 403.316 1239.37 402.992 1239.01 402.752C1238.65 402.504 1238.24 402.38 1237.78 402.38C1237.43 402.38 1237.11 402.464 1236.82 402.632C1236.54 402.8 1236.29 403.044 1236.08 403.364C1235.88 403.676 1235.72 404.064 1235.6 404.528C1235.49 404.992 1235.43 405.516 1235.43 406.1C1235.61 405.628 1235.91 405.252 1236.33 404.972C1236.76 404.692 1237.25 404.552 1237.8 404.552C1238.2 404.552 1238.58 404.628 1238.94 404.78C1239.3 404.924 1239.61 405.128 1239.87 405.392C1240.14 405.648 1240.34 405.952 1240.5 406.304C1240.65 406.656 1240.72 407.032 1240.72 407.432ZM1237.72 409.64C1238.03 409.64 1238.31 409.584 1238.58 409.472C1238.85 409.352 1239.08 409.192 1239.28 408.992C1239.49 408.792 1239.65 408.56 1239.76 408.296C1239.88 408.024 1239.94 407.736 1239.94 407.432C1239.94 407.128 1239.88 406.844 1239.76 406.58C1239.64 406.308 1239.48 406.072 1239.27 405.872C1239.07 405.672 1238.84 405.516 1238.56 405.404C1238.3 405.284 1238.02 405.224 1237.71 405.224C1237.41 405.224 1237.12 405.284 1236.85 405.404C1236.58 405.516 1236.35 405.672 1236.14 405.872C1235.94 406.072 1235.78 406.308 1235.66 406.58C1235.55 406.844 1235.49 407.128 1235.49 407.432C1235.49 407.736 1235.55 408.02 1235.67 408.284C1235.79 408.548 1235.95 408.784 1236.15 408.992C1236.36 409.192 1236.6 409.352 1236.86 409.472C1237.13 409.584 1237.42 409.64 1237.72 409.64ZM1244.57 406.496C1244.96 406.496 1245.33 406.564 1245.66 406.7C1246 406.828 1246.29 407.012 1246.54 407.252C1246.8 407.492 1247 407.78 1247.14 408.116C1247.28 408.444 1247.36 408.808 1247.36 409.208C1247.36 409.632 1247.28 410.016 1247.12 410.36C1246.96 410.712 1246.75 411.008 1246.48 411.248C1246.22 411.496 1245.9 411.688 1245.54 411.824C1245.18 411.96 1244.8 412.028 1244.39 412.028C1244.09 412.028 1243.8 411.988 1243.52 411.908C1243.24 411.836 1242.99 411.728 1242.76 411.584C1242.53 411.44 1242.32 411.268 1242.12 411.068C1241.94 410.868 1241.79 410.644 1241.67 410.396L1242.21 409.988C1242.43 410.38 1242.74 410.696 1243.12 410.936C1243.51 411.176 1243.94 411.296 1244.4 411.296C1244.7 411.296 1244.98 411.244 1245.23 411.14C1245.49 411.044 1245.71 410.904 1245.9 410.72C1246.1 410.536 1246.24 410.316 1246.35 410.06C1246.46 409.804 1246.52 409.524 1246.52 409.22C1246.52 408.924 1246.46 408.656 1246.36 408.416C1246.26 408.168 1246.11 407.956 1245.93 407.78C1245.74 407.604 1245.53 407.468 1245.28 407.372C1245.03 407.276 1244.76 407.228 1244.48 407.228C1244.1 407.228 1243.74 407.312 1243.41 407.48C1243.08 407.64 1242.81 407.876 1242.6 408.188H1241.85C1241.86 408.14 1241.88 408.032 1241.91 407.864C1241.94 407.696 1241.98 407.496 1242.03 407.264C1242.08 407.032 1242.13 406.776 1242.18 406.496C1242.24 406.208 1242.3 405.92 1242.35 405.632C1242.49 404.96 1242.64 404.212 1242.8 403.388H1246.91V404.144H1243.41L1242.82 407.204C1243.03 406.98 1243.28 406.808 1243.58 406.688C1243.88 406.56 1244.21 406.496 1244.57 406.496ZM1250.07 405.044C1249.82 405.044 1249.58 405 1249.36 404.912C1249.14 404.824 1248.95 404.704 1248.79 404.552C1248.63 404.392 1248.51 404.208 1248.41 404C1248.31 403.792 1248.27 403.568 1248.27 403.328C1248.27 403.088 1248.31 402.864 1248.41 402.656C1248.51 402.448 1248.63 402.268 1248.79 402.116C1248.95 401.956 1249.14 401.832 1249.36 401.744C1249.58 401.648 1249.82 401.6 1250.07 401.6C1250.31 401.6 1250.55 401.648 1250.76 401.744C1250.98 401.832 1251.17 401.956 1251.33 402.116C1251.49 402.268 1251.62 402.448 1251.71 402.656C1251.81 402.864 1251.85 403.088 1251.85 403.328C1251.85 403.568 1251.81 403.792 1251.71 404C1251.62 404.208 1251.49 404.392 1251.33 404.552C1251.17 404.704 1250.98 404.824 1250.76 404.912C1250.55 405 1250.31 405.044 1250.07 405.044ZM1250.07 404.576C1250.23 404.576 1250.38 404.544 1250.52 404.48C1250.67 404.408 1250.79 404.316 1250.89 404.204C1251.01 404.084 1251.09 403.952 1251.15 403.808C1251.21 403.656 1251.24 403.496 1251.24 403.328C1251.24 403.152 1251.21 402.988 1251.15 402.836C1251.08 402.684 1250.99 402.552 1250.88 402.44C1250.78 402.328 1250.65 402.24 1250.51 402.176C1250.37 402.112 1250.22 402.08 1250.07 402.08C1249.9 402.08 1249.74 402.116 1249.6 402.188C1249.45 402.252 1249.33 402.344 1249.21 402.464C1249.11 402.576 1249.03 402.708 1248.96 402.86C1248.91 403.004 1248.88 403.16 1248.88 403.328C1248.88 403.496 1248.91 403.656 1248.97 403.808C1249.04 403.96 1249.12 404.096 1249.23 404.216C1249.34 404.328 1249.47 404.416 1249.61 404.48C1249.75 404.544 1249.91 404.576 1250.07 404.576ZM1254.09 410.36C1253.84 410.36 1253.61 410.316 1253.39 410.228C1253.17 410.14 1252.98 410.02 1252.81 409.868C1252.65 409.708 1252.53 409.524 1252.43 409.316C1252.34 409.1 1252.3 408.872 1252.3 408.632C1252.3 408.392 1252.34 408.168 1252.43 407.96C1252.53 407.752 1252.65 407.572 1252.81 407.42C1252.98 407.26 1253.17 407.136 1253.39 407.048C1253.61 406.96 1253.84 406.916 1254.09 406.916C1254.33 406.916 1254.57 406.96 1254.78 407.048C1255.01 407.136 1255.2 407.26 1255.36 407.42C1255.52 407.572 1255.65 407.752 1255.74 407.96C1255.84 408.168 1255.89 408.392 1255.89 408.632C1255.89 408.872 1255.84 409.1 1255.74 409.316C1255.65 409.524 1255.52 409.708 1255.36 409.868C1255.2 410.02 1255.01 410.14 1254.78 410.228C1254.57 410.316 1254.33 410.36 1254.09 410.36ZM1254.09 409.88C1254.25 409.88 1254.41 409.848 1254.54 409.784C1254.69 409.712 1254.81 409.62 1254.91 409.508C1255.03 409.396 1255.11 409.264 1255.17 409.112C1255.23 408.96 1255.26 408.8 1255.26 408.632C1255.26 408.464 1255.23 408.304 1255.17 408.152C1255.1 408 1255.01 407.868 1254.9 407.756C1254.8 407.636 1254.67 407.544 1254.53 407.48C1254.39 407.416 1254.24 407.384 1254.09 407.384C1253.93 407.384 1253.77 407.42 1253.63 407.492C1253.49 407.556 1253.36 407.648 1253.25 407.768C1253.14 407.88 1253.06 408.012 1252.99 408.164C1252.94 408.308 1252.91 408.464 1252.91 408.632C1252.91 408.808 1252.94 408.972 1253.01 409.124C1253.07 409.276 1253.15 409.408 1253.26 409.52C1253.37 409.632 1253.49 409.72 1253.63 409.784C1253.77 409.848 1253.93 409.88 1254.09 409.88ZM1248.57 409.916L1251.91 405.836L1255.18 401.672L1255.6 402.032L1252.25 406.112L1248.97 410.288L1248.57 409.916Z" fill="#282D32"/>
<path d="M1229.73 434.948V434.192H1233.24V434.948H1229.73ZM1240.72 435.032C1240.72 435.44 1240.64 435.824 1240.48 436.184C1240.33 436.536 1240.12 436.844 1239.85 437.108C1239.58 437.372 1239.26 437.58 1238.89 437.732C1238.52 437.884 1238.12 437.96 1237.7 437.96C1237.25 437.96 1236.84 437.88 1236.46 437.72C1236.09 437.552 1235.76 437.316 1235.49 437.012C1235.23 436.708 1235.02 436.336 1234.87 435.896C1234.72 435.448 1234.64 434.948 1234.64 434.396C1234.64 433.532 1234.72 432.78 1234.87 432.14C1235.02 431.492 1235.23 430.956 1235.5 430.532C1235.78 430.1 1236.12 429.78 1236.5 429.572C1236.88 429.364 1237.31 429.26 1237.78 429.26C1238.35 429.26 1238.86 429.4 1239.31 429.68C1239.76 429.96 1240.1 430.348 1240.33 430.844L1239.8 431.324C1239.63 430.916 1239.37 430.592 1239.01 430.352C1238.65 430.104 1238.24 429.98 1237.78 429.98C1237.43 429.98 1237.11 430.064 1236.82 430.232C1236.54 430.4 1236.29 430.644 1236.08 430.964C1235.88 431.276 1235.72 431.664 1235.6 432.128C1235.49 432.592 1235.43 433.116 1235.43 433.7C1235.61 433.228 1235.91 432.852 1236.33 432.572C1236.76 432.292 1237.25 432.152 1237.8 432.152C1238.2 432.152 1238.58 432.228 1238.94 432.38C1239.3 432.524 1239.61 432.728 1239.87 432.992C1240.14 433.248 1240.34 433.552 1240.5 433.904C1240.65 434.256 1240.72 434.632 1240.72 435.032ZM1237.72 437.24C1238.03 437.24 1238.31 437.184 1238.58 437.072C1238.85 436.952 1239.08 436.792 1239.28 436.592C1239.49 436.392 1239.65 436.16 1239.76 435.896C1239.88 435.624 1239.94 435.336 1239.94 435.032C1239.94 434.728 1239.88 434.444 1239.76 434.18C1239.64 433.908 1239.48 433.672 1239.27 433.472C1239.07 433.272 1238.84 433.116 1238.56 433.004C1238.3 432.884 1238.02 432.824 1237.71 432.824C1237.41 432.824 1237.12 432.884 1236.85 433.004C1236.58 433.116 1236.35 433.272 1236.14 433.472C1235.94 433.672 1235.78 433.908 1235.66 434.18C1235.55 434.444 1235.49 434.728 1235.49 435.032C1235.49 435.336 1235.55 435.62 1235.67 435.884C1235.79 436.148 1235.95 436.384 1236.15 436.592C1236.36 436.792 1236.6 436.952 1236.86 437.072C1237.13 437.184 1237.42 437.24 1237.72 437.24ZM1241.68 433.916C1241.68 433.508 1241.76 433.128 1241.91 432.776C1242.07 432.416 1242.28 432.104 1242.56 431.84C1242.83 431.576 1243.15 431.368 1243.52 431.216C1243.88 431.064 1244.28 430.988 1244.7 430.988C1245.15 430.988 1245.56 431.072 1245.94 431.24C1246.32 431.4 1246.64 431.632 1246.9 431.936C1247.17 432.24 1247.38 432.616 1247.54 433.064C1247.69 433.504 1247.76 434 1247.76 434.552C1247.76 435.416 1247.69 436.172 1247.54 436.82C1247.38 437.46 1247.17 437.992 1246.89 438.416C1246.62 438.848 1246.28 439.168 1245.89 439.376C1245.51 439.584 1245.08 439.688 1244.62 439.688C1244.06 439.688 1243.55 439.548 1243.1 439.268C1242.65 438.988 1242.31 438.6 1242.08 438.104L1242.6 437.624C1242.77 438.032 1243.04 438.356 1243.4 438.596C1243.76 438.844 1244.17 438.968 1244.62 438.968C1244.97 438.968 1245.29 438.884 1245.58 438.716C1245.87 438.548 1246.12 438.304 1246.32 437.984C1246.53 437.672 1246.69 437.288 1246.8 436.832C1246.92 436.368 1246.98 435.84 1246.98 435.248C1246.8 435.72 1246.49 436.096 1246.06 436.376C1245.64 436.656 1245.15 436.796 1244.61 436.796C1244.2 436.796 1243.82 436.724 1243.46 436.58C1243.1 436.428 1242.8 436.224 1242.53 435.968C1242.27 435.704 1242.06 435.396 1241.91 435.044C1241.76 434.692 1241.68 434.316 1241.68 433.916ZM1244.69 431.708C1244.39 431.708 1244.1 431.768 1243.83 431.888C1243.56 432 1243.33 432.156 1243.12 432.356C1242.92 432.556 1242.76 432.792 1242.64 433.064C1242.52 433.328 1242.46 433.612 1242.46 433.916C1242.46 434.22 1242.52 434.508 1242.64 434.78C1242.76 435.044 1242.92 435.276 1243.12 435.476C1243.33 435.676 1243.56 435.836 1243.83 435.956C1244.1 436.068 1244.39 436.124 1244.69 436.124C1245 436.124 1245.28 436.068 1245.56 435.956C1245.83 435.836 1246.06 435.676 1246.26 435.476C1246.46 435.276 1246.62 435.044 1246.73 434.78C1246.85 434.508 1246.91 434.22 1246.91 433.916C1246.91 433.62 1246.85 433.34 1246.73 433.076C1246.62 432.804 1246.46 432.568 1246.25 432.368C1246.05 432.16 1245.82 432 1245.54 431.888C1245.28 431.768 1245 431.708 1244.69 431.708ZM1249.06 437.84V436.664H1249.77V437.84H1249.06ZM1254.67 435.008C1255.2 435.096 1255.62 435.336 1255.93 435.728C1256.25 436.12 1256.41 436.604 1256.41 437.18C1256.41 437.54 1256.34 437.868 1256.2 438.164C1256.08 438.468 1255.89 438.724 1255.64 438.932C1255.4 439.148 1255.11 439.312 1254.76 439.424C1254.43 439.544 1254.05 439.604 1253.64 439.604C1253.03 439.604 1252.5 439.48 1252.04 439.232C1251.58 438.992 1251.24 438.656 1251.01 438.224L1251.57 437.708C1251.74 438.06 1252 438.34 1252.34 438.548C1252.68 438.756 1253.12 438.86 1253.64 438.86C1254.24 438.86 1254.71 438.712 1255.05 438.416C1255.4 438.128 1255.57 437.712 1255.57 437.168C1255.57 436.616 1255.39 436.18 1255.03 435.86C1254.67 435.54 1254.15 435.38 1253.47 435.38H1253.17V434.684H1253.49C1254.11 434.684 1254.58 434.544 1254.91 434.264C1255.24 433.976 1255.4 433.604 1255.4 433.148C1255.4 432.908 1255.36 432.696 1255.27 432.512C1255.18 432.328 1255.06 432.176 1254.9 432.056C1254.74 431.928 1254.56 431.832 1254.34 431.768C1254.14 431.704 1253.91 431.672 1253.66 431.672C1253.2 431.672 1252.8 431.776 1252.45 431.984C1252.1 432.184 1251.84 432.464 1251.67 432.824L1251.14 432.32C1251.24 432.112 1251.37 431.924 1251.55 431.756C1251.72 431.58 1251.92 431.432 1252.15 431.312C1252.37 431.192 1252.62 431.1 1252.89 431.036C1253.16 430.964 1253.44 430.928 1253.73 430.928C1254.1 430.928 1254.44 430.98 1254.74 431.084C1255.05 431.188 1255.32 431.336 1255.54 431.528C1255.77 431.712 1255.94 431.936 1256.06 432.2C1256.19 432.464 1256.25 432.756 1256.25 433.076C1256.25 433.316 1256.22 433.548 1256.14 433.772C1256.07 433.988 1255.97 434.184 1255.83 434.36C1255.7 434.528 1255.53 434.672 1255.33 434.792C1255.14 434.904 1254.92 434.976 1254.67 435.008ZM1257.49 437.84C1257.49 437.568 1257.51 437.296 1257.56 437.024C1257.61 436.744 1257.7 436.468 1257.84 436.196C1257.98 435.924 1258.18 435.664 1258.44 435.416C1258.7 435.16 1259.05 434.92 1259.48 434.696C1259.71 434.576 1259.95 434.46 1260.2 434.348C1260.46 434.228 1260.69 434.096 1260.9 433.952C1261.11 433.808 1261.29 433.648 1261.43 433.472C1261.56 433.288 1261.63 433.076 1261.63 432.836C1261.63 432.684 1261.59 432.536 1261.52 432.392C1261.46 432.24 1261.36 432.108 1261.22 431.996C1261.09 431.876 1260.93 431.78 1260.73 431.708C1260.54 431.636 1260.31 431.6 1260.05 431.6C1259.78 431.6 1259.55 431.64 1259.34 431.72C1259.13 431.792 1258.95 431.88 1258.79 431.984C1258.63 432.088 1258.5 432.2 1258.39 432.32C1258.28 432.432 1258.19 432.524 1258.14 432.596L1257.6 432.008C1257.65 431.96 1257.74 431.872 1257.87 431.744C1258.01 431.616 1258.19 431.488 1258.4 431.36C1258.63 431.232 1258.89 431.12 1259.18 431.024C1259.48 430.92 1259.81 430.868 1260.18 430.868C1260.55 430.868 1260.87 430.92 1261.16 431.024C1261.45 431.12 1261.69 431.256 1261.89 431.432C1262.09 431.608 1262.25 431.812 1262.35 432.044C1262.45 432.268 1262.51 432.504 1262.51 432.752C1262.51 433.08 1262.43 433.364 1262.29 433.604C1262.15 433.844 1261.97 434.052 1261.75 434.228C1261.54 434.404 1261.32 434.556 1261.08 434.684C1260.84 434.804 1260.62 434.908 1260.43 434.996C1260.17 435.108 1259.92 435.236 1259.67 435.38C1259.43 435.516 1259.22 435.668 1259.03 435.836C1258.83 436.004 1258.67 436.192 1258.55 436.4C1258.43 436.608 1258.37 436.84 1258.37 437.096H1262.64V437.84H1257.49ZM1265.5 432.644C1265.25 432.644 1265.02 432.6 1264.79 432.512C1264.58 432.424 1264.39 432.304 1264.23 432.152C1264.07 431.992 1263.94 431.808 1263.84 431.6C1263.75 431.392 1263.7 431.168 1263.7 430.928C1263.7 430.688 1263.75 430.464 1263.84 430.256C1263.94 430.048 1264.07 429.868 1264.23 429.716C1264.39 429.556 1264.58 429.432 1264.79 429.344C1265.02 429.248 1265.25 429.2 1265.5 429.2C1265.75 429.2 1265.98 429.248 1266.2 429.344C1266.41 429.432 1266.6 429.556 1266.76 429.716C1266.93 429.868 1267.06 430.048 1267.14 430.256C1267.24 430.464 1267.29 430.688 1267.29 430.928C1267.29 431.168 1267.24 431.392 1267.14 431.6C1267.06 431.808 1266.93 431.992 1266.76 432.152C1266.6 432.304 1266.41 432.424 1266.2 432.512C1265.98 432.6 1265.75 432.644 1265.5 432.644ZM1265.5 432.176C1265.66 432.176 1265.81 432.144 1265.96 432.08C1266.1 432.008 1266.22 431.916 1266.33 431.804C1266.44 431.684 1266.52 431.552 1266.58 431.408C1266.64 431.256 1266.68 431.096 1266.68 430.928C1266.68 430.752 1266.64 430.588 1266.58 430.436C1266.52 430.284 1266.43 430.152 1266.32 430.04C1266.21 429.928 1266.09 429.84 1265.94 429.776C1265.8 429.712 1265.65 429.68 1265.5 429.68C1265.33 429.68 1265.18 429.716 1265.03 429.788C1264.89 429.852 1264.76 429.944 1264.65 430.064C1264.54 430.176 1264.46 430.308 1264.4 430.46C1264.34 430.604 1264.31 430.76 1264.31 430.928C1264.31 431.096 1264.34 431.256 1264.41 431.408C1264.47 431.56 1264.56 431.696 1264.66 431.816C1264.77 431.928 1264.9 432.016 1265.04 432.08C1265.19 432.144 1265.34 432.176 1265.5 432.176ZM1269.52 437.96C1269.27 437.96 1269.04 437.916 1268.82 437.828C1268.61 437.74 1268.42 437.62 1268.25 437.468C1268.09 437.308 1267.96 437.124 1267.86 436.916C1267.78 436.7 1267.73 436.472 1267.73 436.232C1267.73 435.992 1267.78 435.768 1267.86 435.56C1267.96 435.352 1268.09 435.172 1268.25 435.02C1268.42 434.86 1268.61 434.736 1268.82 434.648C1269.04 434.56 1269.27 434.516 1269.52 434.516C1269.77 434.516 1270 434.56 1270.22 434.648C1270.44 434.736 1270.63 434.86 1270.79 435.02C1270.95 435.172 1271.08 435.352 1271.18 435.56C1271.27 435.768 1271.32 435.992 1271.32 436.232C1271.32 436.472 1271.27 436.7 1271.18 436.916C1271.08 437.124 1270.95 437.308 1270.79 437.468C1270.63 437.62 1270.44 437.74 1270.22 437.828C1270 437.916 1269.77 437.96 1269.52 437.96ZM1269.52 437.48C1269.69 437.48 1269.84 437.448 1269.98 437.384C1270.12 437.312 1270.24 437.22 1270.35 437.108C1270.46 436.996 1270.54 436.864 1270.6 436.712C1270.66 436.56 1270.7 436.4 1270.7 436.232C1270.7 436.064 1270.66 435.904 1270.6 435.752C1270.54 435.6 1270.45 435.468 1270.34 435.356C1270.23 435.236 1270.11 435.144 1269.96 435.08C1269.82 435.016 1269.67 434.984 1269.52 434.984C1269.36 434.984 1269.21 435.02 1269.06 435.092C1268.92 435.156 1268.79 435.248 1268.68 435.368C1268.58 435.48 1268.49 435.612 1268.43 435.764C1268.37 435.908 1268.34 436.064 1268.34 436.232C1268.34 436.408 1268.38 436.572 1268.44 436.724C1268.5 436.876 1268.59 437.008 1268.69 437.12C1268.8 437.232 1268.93 437.32 1269.06 437.384C1269.21 437.448 1269.36 437.48 1269.52 437.48ZM1264 437.516L1267.35 433.436L1270.61 429.272L1271.03 429.632L1267.68 433.712L1264.41 437.888L1264 437.516Z" fill="#95B7F7"/>
<path opacity="0.5" d="M1229.73 345.84V345.084H1233.24V345.84H1229.73ZM1237.34 344.988C1237.73 344.988 1238.1 345.056 1238.43 345.192C1238.77 345.32 1239.06 345.504 1239.31 345.744C1239.56 345.984 1239.76 346.272 1239.91 346.608C1240.05 346.936 1240.12 347.3 1240.12 347.7C1240.12 348.124 1240.04 348.508 1239.88 348.852C1239.73 349.204 1239.52 349.5 1239.25 349.74C1238.98 349.988 1238.67 350.18 1238.31 350.316C1237.95 350.452 1237.57 350.52 1237.16 350.52C1236.86 350.52 1236.56 350.48 1236.28 350.4C1236.01 350.328 1235.76 350.22 1235.53 350.076C1235.3 349.932 1235.08 349.76 1234.89 349.56C1234.71 349.36 1234.56 349.136 1234.44 348.888L1234.98 348.48C1235.2 348.872 1235.5 349.188 1235.89 349.428C1236.28 349.668 1236.71 349.788 1237.17 349.788C1237.47 349.788 1237.74 349.736 1238 349.632C1238.26 349.536 1238.48 349.396 1238.67 349.212C1238.86 349.028 1239.01 348.808 1239.12 348.552C1239.23 348.296 1239.28 348.016 1239.28 347.712C1239.28 347.416 1239.23 347.148 1239.13 346.908C1239.02 346.66 1238.88 346.448 1238.7 346.272C1238.51 346.096 1238.3 345.96 1238.05 345.864C1237.8 345.768 1237.53 345.72 1237.24 345.72C1236.87 345.72 1236.51 345.804 1236.18 345.972C1235.85 346.132 1235.58 346.368 1235.37 346.68H1234.62C1234.62 346.632 1234.64 346.524 1234.68 346.356C1234.71 346.188 1234.75 345.988 1234.8 345.756C1234.84 345.524 1234.9 345.268 1234.95 344.988C1235.01 344.7 1235.06 344.412 1235.12 344.124C1235.26 343.452 1235.4 342.704 1235.56 341.88H1239.68V342.636H1236.18L1235.59 345.696C1235.8 345.472 1236.05 345.3 1236.34 345.18C1236.65 345.052 1236.98 344.988 1237.34 344.988ZM1243.88 344.988C1244.27 344.988 1244.64 345.056 1244.97 345.192C1245.31 345.32 1245.6 345.504 1245.85 345.744C1246.1 345.984 1246.3 346.272 1246.45 346.608C1246.59 346.936 1246.66 347.3 1246.66 347.7C1246.66 348.124 1246.58 348.508 1246.42 348.852C1246.27 349.204 1246.06 349.5 1245.79 349.74C1245.52 349.988 1245.21 350.18 1244.85 350.316C1244.49 350.452 1244.11 350.52 1243.7 350.52C1243.4 350.52 1243.1 350.48 1242.82 350.4C1242.55 350.328 1242.3 350.22 1242.07 350.076C1241.84 349.932 1241.62 349.76 1241.43 349.56C1241.25 349.36 1241.1 349.136 1240.98 348.888L1241.52 348.48C1241.74 348.872 1242.04 349.188 1242.43 349.428C1242.82 349.668 1243.25 349.788 1243.71 349.788C1244.01 349.788 1244.28 349.736 1244.54 349.632C1244.8 349.536 1245.02 349.396 1245.21 349.212C1245.4 349.028 1245.55 348.808 1245.66 348.552C1245.77 348.296 1245.82 348.016 1245.82 347.712C1245.82 347.416 1245.77 347.148 1245.67 346.908C1245.56 346.66 1245.42 346.448 1245.24 346.272C1245.05 346.096 1244.84 345.96 1244.59 345.864C1244.34 345.768 1244.07 345.72 1243.78 345.72C1243.41 345.72 1243.05 345.804 1242.72 345.972C1242.39 346.132 1242.12 346.368 1241.91 346.68H1241.16C1241.16 346.632 1241.18 346.524 1241.22 346.356C1241.25 346.188 1241.29 345.988 1241.34 345.756C1241.38 345.524 1241.44 345.268 1241.49 344.988C1241.55 344.7 1241.6 344.412 1241.66 344.124C1241.8 343.452 1241.94 342.704 1242.1 341.88H1246.22V342.636H1242.72L1242.13 345.696C1242.34 345.472 1242.59 345.3 1242.88 345.18C1243.19 345.052 1243.52 344.988 1243.88 344.988ZM1249.37 343.536C1249.13 343.536 1248.89 343.492 1248.67 343.404C1248.45 343.316 1248.26 343.196 1248.1 343.044C1247.94 342.884 1247.81 342.7 1247.72 342.492C1247.62 342.284 1247.57 342.06 1247.57 341.82C1247.57 341.58 1247.62 341.356 1247.72 341.148C1247.81 340.94 1247.94 340.76 1248.1 340.608C1248.26 340.448 1248.45 340.324 1248.67 340.236C1248.89 340.14 1249.13 340.092 1249.37 340.092C1249.62 340.092 1249.85 340.14 1250.07 340.236C1250.29 340.324 1250.47 340.448 1250.63 340.608C1250.8 340.76 1250.93 340.94 1251.02 341.148C1251.11 341.356 1251.16 341.58 1251.16 341.82C1251.16 342.06 1251.11 342.284 1251.02 342.492C1250.93 342.7 1250.8 342.884 1250.63 343.044C1250.47 343.196 1250.29 343.316 1250.07 343.404C1249.85 343.492 1249.62 343.536 1249.37 343.536ZM1249.37 343.068C1249.53 343.068 1249.69 343.036 1249.83 342.972C1249.97 342.9 1250.1 342.808 1250.2 342.696C1250.31 342.576 1250.4 342.444 1250.45 342.3C1250.52 342.148 1250.55 341.988 1250.55 341.82C1250.55 341.644 1250.52 341.48 1250.45 341.328C1250.39 341.176 1250.3 341.044 1250.19 340.932C1250.09 340.82 1249.96 340.732 1249.82 340.668C1249.67 340.604 1249.53 340.572 1249.37 340.572C1249.21 340.572 1249.05 340.608 1248.91 340.68C1248.76 340.744 1248.63 340.836 1248.52 340.956C1248.42 341.068 1248.33 341.2 1248.27 341.352C1248.21 341.496 1248.19 341.652 1248.19 341.82C1248.19 341.988 1248.22 342.148 1248.28 342.3C1248.35 342.452 1248.43 342.588 1248.53 342.708C1248.65 342.82 1248.77 342.908 1248.92 342.972C1249.06 343.036 1249.21 343.068 1249.37 343.068ZM1253.39 348.852C1253.15 348.852 1252.91 348.808 1252.7 348.72C1252.48 348.632 1252.29 348.512 1252.12 348.36C1251.96 348.2 1251.83 348.016 1251.74 347.808C1251.65 347.592 1251.61 347.364 1251.61 347.124C1251.61 346.884 1251.65 346.66 1251.74 346.452C1251.83 346.244 1251.96 346.064 1252.12 345.912C1252.29 345.752 1252.48 345.628 1252.7 345.54C1252.91 345.452 1253.15 345.408 1253.39 345.408C1253.64 345.408 1253.87 345.452 1254.09 345.54C1254.31 345.628 1254.51 345.752 1254.67 345.912C1254.83 346.064 1254.95 346.244 1255.05 346.452C1255.15 346.66 1255.19 346.884 1255.19 347.124C1255.19 347.364 1255.15 347.592 1255.05 347.808C1254.95 348.016 1254.83 348.2 1254.67 348.36C1254.51 348.512 1254.31 348.632 1254.09 348.72C1253.87 348.808 1253.64 348.852 1253.39 348.852ZM1253.39 348.372C1253.56 348.372 1253.71 348.34 1253.85 348.276C1253.99 348.204 1254.12 348.112 1254.22 348C1254.33 347.888 1254.42 347.756 1254.47 347.604C1254.54 347.452 1254.57 347.292 1254.57 347.124C1254.57 346.956 1254.54 346.796 1254.47 346.644C1254.41 346.492 1254.32 346.36 1254.21 346.248C1254.11 346.128 1253.98 346.036 1253.84 345.972C1253.69 345.908 1253.55 345.876 1253.39 345.876C1253.23 345.876 1253.08 345.912 1252.94 345.984C1252.79 346.048 1252.67 346.14 1252.55 346.26C1252.45 346.372 1252.37 346.504 1252.3 346.656C1252.25 346.8 1252.22 346.956 1252.22 347.124C1252.22 347.3 1252.25 347.464 1252.31 347.616C1252.38 347.768 1252.46 347.9 1252.57 348.012C1252.68 348.124 1252.8 348.212 1252.94 348.276C1253.08 348.34 1253.23 348.372 1253.39 348.372ZM1247.87 348.408L1251.22 344.328L1254.49 340.164L1254.91 340.524L1251.56 344.604L1248.28 348.78L1247.87 348.408Z" fill="#282D32"/>
<path d="M1229.73 312.72V311.964H1233.24V312.72H1229.73ZM1238.52 309.372H1233.92V308.616H1239.81L1235.5 317.136H1234.57L1238.52 309.372ZM1240.25 311.688C1240.25 311.28 1240.33 310.9 1240.48 310.548C1240.64 310.188 1240.85 309.876 1241.13 309.612C1241.4 309.348 1241.72 309.14 1242.09 308.988C1242.45 308.836 1242.85 308.76 1243.27 308.76C1243.72 308.76 1244.13 308.844 1244.51 309.012C1244.89 309.172 1245.21 309.404 1245.47 309.708C1245.74 310.012 1245.95 310.388 1246.11 310.836C1246.26 311.276 1246.33 311.772 1246.33 312.324C1246.33 313.188 1246.26 313.944 1246.11 314.592C1245.95 315.232 1245.74 315.764 1245.46 316.188C1245.19 316.62 1244.85 316.94 1244.46 317.148C1244.08 317.356 1243.65 317.46 1243.19 317.46C1242.63 317.46 1242.12 317.32 1241.67 317.04C1241.22 316.76 1240.88 316.372 1240.65 315.876L1241.17 315.396C1241.34 315.804 1241.61 316.128 1241.97 316.368C1242.33 316.616 1242.74 316.74 1243.19 316.74C1243.54 316.74 1243.86 316.656 1244.15 316.488C1244.44 316.32 1244.69 316.076 1244.89 315.756C1245.1 315.444 1245.26 315.06 1245.37 314.604C1245.49 314.14 1245.55 313.612 1245.55 313.02C1245.37 313.492 1245.06 313.868 1244.63 314.148C1244.21 314.428 1243.72 314.568 1243.18 314.568C1242.77 314.568 1242.39 314.496 1242.03 314.352C1241.67 314.2 1241.37 313.996 1241.1 313.74C1240.84 313.476 1240.63 313.168 1240.48 312.816C1240.33 312.464 1240.25 312.088 1240.25 311.688ZM1243.26 309.48C1242.96 309.48 1242.67 309.54 1242.4 309.66C1242.13 309.772 1241.9 309.928 1241.69 310.128C1241.49 310.328 1241.33 310.564 1241.21 310.836C1241.09 311.1 1241.03 311.384 1241.03 311.688C1241.03 311.992 1241.09 312.28 1241.21 312.552C1241.33 312.816 1241.49 313.048 1241.69 313.248C1241.9 313.448 1242.13 313.608 1242.4 313.728C1242.67 313.84 1242.96 313.896 1243.26 313.896C1243.57 313.896 1243.85 313.84 1244.13 313.728C1244.4 313.608 1244.63 313.448 1244.83 313.248C1245.03 313.048 1245.19 312.816 1245.3 312.552C1245.42 312.28 1245.48 311.992 1245.48 311.688C1245.48 311.392 1245.42 311.112 1245.3 310.848C1245.19 310.576 1245.03 310.34 1244.82 310.14C1244.62 309.932 1244.39 309.772 1244.11 309.66C1243.85 309.54 1243.57 309.48 1243.26 309.48ZM1247.63 315.612V314.436H1248.34V315.612H1247.63ZM1253.24 312.78C1253.77 312.868 1254.19 313.108 1254.5 313.5C1254.82 313.892 1254.98 314.376 1254.98 314.952C1254.98 315.312 1254.91 315.64 1254.77 315.936C1254.65 316.24 1254.46 316.496 1254.21 316.704C1253.97 316.92 1253.68 317.084 1253.33 317.196C1253 317.316 1252.62 317.376 1252.21 317.376C1251.6 317.376 1251.07 317.252 1250.61 317.004C1250.15 316.764 1249.81 316.428 1249.58 315.996L1250.14 315.48C1250.31 315.832 1250.57 316.112 1250.91 316.32C1251.25 316.528 1251.69 316.632 1252.21 316.632C1252.81 316.632 1253.28 316.484 1253.62 316.188C1253.97 315.9 1254.14 315.484 1254.14 314.94C1254.14 314.388 1253.96 313.952 1253.6 313.632C1253.24 313.312 1252.72 313.152 1252.04 313.152H1251.74V312.456H1252.06C1252.68 312.456 1253.15 312.316 1253.48 312.036C1253.81 311.748 1253.97 311.376 1253.97 310.92C1253.97 310.68 1253.93 310.468 1253.84 310.284C1253.75 310.1 1253.63 309.948 1253.47 309.828C1253.31 309.7 1253.13 309.604 1252.91 309.54C1252.71 309.476 1252.48 309.444 1252.23 309.444C1251.77 309.444 1251.37 309.548 1251.02 309.756C1250.67 309.956 1250.41 310.236 1250.24 310.596L1249.71 310.092C1249.81 309.884 1249.94 309.696 1250.12 309.528C1250.29 309.352 1250.49 309.204 1250.72 309.084C1250.94 308.964 1251.19 308.872 1251.46 308.808C1251.73 308.736 1252.01 308.7 1252.3 308.7C1252.67 308.7 1253.01 308.752 1253.31 308.856C1253.62 308.96 1253.89 309.108 1254.11 309.3C1254.34 309.484 1254.51 309.708 1254.63 309.972C1254.76 310.236 1254.82 310.528 1254.82 310.848C1254.82 311.088 1254.79 311.32 1254.71 311.544C1254.64 311.76 1254.54 311.956 1254.4 312.132C1254.27 312.3 1254.1 312.444 1253.9 312.564C1253.71 312.676 1253.49 312.748 1253.24 312.78ZM1259.8 317.136V315H1255.81V314.28L1260.07 308.76H1260.62V314.256H1261.68V315H1260.62V317.136H1259.8ZM1256.67 314.256H1259.89V310.044L1256.67 314.256ZM1264.36 310.416C1264.12 310.416 1263.88 310.372 1263.66 310.284C1263.44 310.196 1263.25 310.076 1263.09 309.924C1262.93 309.764 1262.8 309.58 1262.71 309.372C1262.61 309.164 1262.56 308.94 1262.56 308.7C1262.56 308.46 1262.61 308.236 1262.71 308.028C1262.8 307.82 1262.93 307.64 1263.09 307.488C1263.25 307.328 1263.44 307.204 1263.66 307.116C1263.88 307.02 1264.12 306.972 1264.36 306.972C1264.61 306.972 1264.84 307.02 1265.06 307.116C1265.28 307.204 1265.46 307.328 1265.62 307.488C1265.79 307.64 1265.92 307.82 1266.01 308.028C1266.1 308.236 1266.15 308.46 1266.15 308.7C1266.15 308.94 1266.1 309.164 1266.01 309.372C1265.92 309.58 1265.79 309.764 1265.62 309.924C1265.46 310.076 1265.28 310.196 1265.06 310.284C1264.84 310.372 1264.61 310.416 1264.36 310.416ZM1264.36 309.948C1264.52 309.948 1264.68 309.916 1264.82 309.852C1264.96 309.78 1265.09 309.688 1265.19 309.576C1265.3 309.456 1265.39 309.324 1265.44 309.18C1265.51 309.028 1265.54 308.868 1265.54 308.7C1265.54 308.524 1265.51 308.36 1265.44 308.208C1265.38 308.056 1265.29 307.924 1265.18 307.812C1265.08 307.7 1264.95 307.612 1264.81 307.548C1264.66 307.484 1264.52 307.452 1264.36 307.452C1264.2 307.452 1264.04 307.488 1263.9 307.56C1263.75 307.624 1263.62 307.716 1263.51 307.836C1263.41 307.948 1263.32 308.08 1263.26 308.232C1263.2 308.376 1263.18 308.532 1263.18 308.7C1263.18 308.868 1263.21 309.028 1263.27 309.18C1263.34 309.332 1263.42 309.468 1263.52 309.588C1263.64 309.7 1263.76 309.788 1263.91 309.852C1264.05 309.916 1264.2 309.948 1264.36 309.948ZM1268.38 315.732C1268.14 315.732 1267.9 315.688 1267.69 315.6C1267.47 315.512 1267.28 315.392 1267.11 315.24C1266.95 315.08 1266.82 314.896 1266.73 314.688C1266.64 314.472 1266.6 314.244 1266.6 314.004C1266.6 313.764 1266.64 313.54 1266.73 313.332C1266.82 313.124 1266.95 312.944 1267.11 312.792C1267.28 312.632 1267.47 312.508 1267.69 312.42C1267.9 312.332 1268.14 312.288 1268.38 312.288C1268.63 312.288 1268.86 312.332 1269.08 312.42C1269.3 312.508 1269.5 312.632 1269.66 312.792C1269.82 312.944 1269.94 313.124 1270.04 313.332C1270.14 313.54 1270.18 313.764 1270.18 314.004C1270.18 314.244 1270.14 314.472 1270.04 314.688C1269.94 314.896 1269.82 315.08 1269.66 315.24C1269.5 315.392 1269.3 315.512 1269.08 315.6C1268.86 315.688 1268.63 315.732 1268.38 315.732ZM1268.38 315.252C1268.55 315.252 1268.7 315.22 1268.84 315.156C1268.98 315.084 1269.11 314.992 1269.21 314.88C1269.32 314.768 1269.41 314.636 1269.46 314.484C1269.53 314.332 1269.56 314.172 1269.56 314.004C1269.56 313.836 1269.53 313.676 1269.46 313.524C1269.4 313.372 1269.31 313.24 1269.2 313.128C1269.1 313.008 1268.97 312.916 1268.83 312.852C1268.68 312.788 1268.54 312.756 1268.38 312.756C1268.22 312.756 1268.07 312.792 1267.93 312.864C1267.78 312.928 1267.66 313.02 1267.54 313.14C1267.44 313.252 1267.36 313.384 1267.29 313.536C1267.24 313.68 1267.21 313.836 1267.21 314.004C1267.21 314.18 1267.24 314.344 1267.3 314.496C1267.37 314.648 1267.45 314.78 1267.56 314.892C1267.67 315.004 1267.79 315.092 1267.93 315.156C1268.07 315.22 1268.22 315.252 1268.38 315.252ZM1262.86 315.288L1266.21 311.208L1269.48 307.044L1269.9 307.404L1266.55 311.484L1263.27 315.66L1262.86 315.288Z" fill="#282D32"/>
<path opacity="0.5" d="M1229.73 284.332V283.576H1233.24V284.332H1229.73ZM1238.01 288.748V286.612H1234.01V285.892L1238.27 280.372H1238.82V285.868H1239.88V286.612H1238.82V288.748H1238.01ZM1234.88 285.868H1238.09V281.656L1234.88 285.868ZM1243.61 283.48C1244 283.48 1244.37 283.548 1244.7 283.684C1245.04 283.812 1245.33 283.996 1245.58 284.236C1245.83 284.476 1246.03 284.764 1246.18 285.1C1246.32 285.428 1246.39 285.792 1246.39 286.192C1246.39 286.616 1246.31 287 1246.15 287.344C1246 287.696 1245.79 287.992 1245.52 288.232C1245.25 288.48 1244.94 288.672 1244.58 288.808C1244.22 288.944 1243.84 289.012 1243.43 289.012C1243.13 289.012 1242.83 288.972 1242.55 288.892C1242.28 288.82 1242.03 288.712 1241.8 288.568C1241.57 288.424 1241.35 288.252 1241.16 288.052C1240.98 287.852 1240.83 287.628 1240.71 287.38L1241.25 286.972C1241.47 287.364 1241.77 287.68 1242.16 287.92C1242.55 288.16 1242.98 288.28 1243.44 288.28C1243.74 288.28 1244.01 288.228 1244.27 288.124C1244.53 288.028 1244.75 287.888 1244.94 287.704C1245.13 287.52 1245.28 287.3 1245.39 287.044C1245.5 286.788 1245.55 286.508 1245.55 286.204C1245.55 285.908 1245.5 285.64 1245.4 285.4C1245.29 285.152 1245.15 284.94 1244.97 284.764C1244.78 284.588 1244.57 284.452 1244.32 284.356C1244.07 284.26 1243.8 284.212 1243.51 284.212C1243.14 284.212 1242.78 284.296 1242.45 284.464C1242.12 284.624 1241.85 284.86 1241.64 285.172H1240.89C1240.89 285.124 1240.91 285.016 1240.95 284.848C1240.98 284.68 1241.02 284.48 1241.07 284.248C1241.11 284.016 1241.17 283.76 1241.22 283.48C1241.28 283.192 1241.33 282.904 1241.39 282.616C1241.53 281.944 1241.67 281.196 1241.83 280.372H1245.95V281.128H1242.45L1241.86 284.188C1242.07 283.964 1242.32 283.792 1242.61 283.672C1242.92 283.544 1243.25 283.48 1243.61 283.48ZM1249.11 282.028C1248.86 282.028 1248.62 281.984 1248.4 281.896C1248.18 281.808 1247.99 281.688 1247.83 281.536C1247.67 281.376 1247.55 281.192 1247.45 280.984C1247.35 280.776 1247.31 280.552 1247.31 280.312C1247.31 280.072 1247.35 279.848 1247.45 279.64C1247.55 279.432 1247.67 279.252 1247.83 279.1C1247.99 278.94 1248.18 278.816 1248.4 278.728C1248.62 278.632 1248.86 278.584 1249.11 278.584C1249.35 278.584 1249.59 278.632 1249.8 278.728C1250.02 278.816 1250.21 278.94 1250.37 279.1C1250.53 279.252 1250.66 279.432 1250.75 279.64C1250.85 279.848 1250.89 280.072 1250.89 280.312C1250.89 280.552 1250.85 280.776 1250.75 280.984C1250.66 281.192 1250.53 281.376 1250.37 281.536C1250.21 281.688 1250.02 281.808 1249.8 281.896C1249.59 281.984 1249.35 282.028 1249.11 282.028ZM1249.11 281.56C1249.27 281.56 1249.42 281.528 1249.56 281.464C1249.71 281.392 1249.83 281.3 1249.93 281.188C1250.05 281.068 1250.13 280.936 1250.19 280.792C1250.25 280.64 1250.28 280.48 1250.28 280.312C1250.28 280.136 1250.25 279.972 1250.19 279.82C1250.12 279.668 1250.03 279.536 1249.92 279.424C1249.82 279.312 1249.69 279.224 1249.55 279.16C1249.41 279.096 1249.26 279.064 1249.11 279.064C1248.94 279.064 1248.78 279.1 1248.64 279.172C1248.49 279.236 1248.37 279.328 1248.25 279.448C1248.15 279.56 1248.07 279.692 1248 279.844C1247.95 279.988 1247.92 280.144 1247.92 280.312C1247.92 280.48 1247.95 280.64 1248.01 280.792C1248.08 280.944 1248.16 281.08 1248.27 281.2C1248.38 281.312 1248.51 281.4 1248.65 281.464C1248.79 281.528 1248.95 281.56 1249.11 281.56ZM1253.13 287.344C1252.88 287.344 1252.65 287.3 1252.43 287.212C1252.21 287.124 1252.02 287.004 1251.85 286.852C1251.69 286.692 1251.57 286.508 1251.47 286.3C1251.38 286.084 1251.34 285.856 1251.34 285.616C1251.34 285.376 1251.38 285.152 1251.47 284.944C1251.57 284.736 1251.69 284.556 1251.85 284.404C1252.02 284.244 1252.21 284.12 1252.43 284.032C1252.65 283.944 1252.88 283.9 1253.13 283.9C1253.37 283.9 1253.61 283.944 1253.82 284.032C1254.05 284.12 1254.24 284.244 1254.4 284.404C1254.56 284.556 1254.69 284.736 1254.78 284.944C1254.88 285.152 1254.93 285.376 1254.93 285.616C1254.93 285.856 1254.88 286.084 1254.78 286.3C1254.69 286.508 1254.56 286.692 1254.4 286.852C1254.24 287.004 1254.05 287.124 1253.82 287.212C1253.61 287.3 1253.37 287.344 1253.13 287.344ZM1253.13 286.864C1253.29 286.864 1253.45 286.832 1253.58 286.768C1253.73 286.696 1253.85 286.604 1253.95 286.492C1254.07 286.38 1254.15 286.248 1254.21 286.096C1254.27 285.944 1254.3 285.784 1254.3 285.616C1254.3 285.448 1254.27 285.288 1254.21 285.136C1254.14 284.984 1254.05 284.852 1253.94 284.74C1253.84 284.62 1253.71 284.528 1253.57 284.464C1253.43 284.4 1253.28 284.368 1253.13 284.368C1252.97 284.368 1252.81 284.404 1252.67 284.476C1252.53 284.54 1252.4 284.632 1252.29 284.752C1252.18 284.864 1252.1 284.996 1252.03 285.148C1251.98 285.292 1251.95 285.448 1251.95 285.616C1251.95 285.792 1251.98 285.956 1252.05 286.108C1252.11 286.26 1252.19 286.392 1252.3 286.504C1252.41 286.616 1252.53 286.704 1252.67 286.768C1252.81 286.832 1252.97 286.864 1253.13 286.864ZM1247.61 286.9L1250.95 282.82L1254.22 278.656L1254.64 279.016L1251.29 283.096L1248.01 287.272L1247.61 286.9Z" fill="#282D32"/>
<path opacity="0.5" d="M1229.73 224.401V223.645H1233.24V224.401H1229.73ZM1237.56 224.461C1238.09 224.549 1238.51 224.789 1238.82 225.181C1239.14 225.573 1239.3 226.057 1239.3 226.633C1239.3 226.993 1239.23 227.321 1239.09 227.617C1238.97 227.921 1238.78 228.177 1238.53 228.385C1238.29 228.601 1238 228.765 1237.65 228.877C1237.32 228.997 1236.94 229.057 1236.53 229.057C1235.92 229.057 1235.39 228.933 1234.93 228.685C1234.47 228.445 1234.13 228.109 1233.9 227.677L1234.46 227.161C1234.63 227.513 1234.89 227.793 1235.23 228.001C1235.57 228.209 1236.01 228.313 1236.53 228.313C1237.13 228.313 1237.6 228.165 1237.94 227.869C1238.29 227.581 1238.46 227.165 1238.46 226.621C1238.46 226.069 1238.28 225.633 1237.92 225.313C1237.56 224.993 1237.04 224.833 1236.36 224.833H1236.06V224.137H1236.38C1237 224.137 1237.47 223.997 1237.8 223.717C1238.13 223.429 1238.29 223.057 1238.29 222.601C1238.29 222.361 1238.25 222.149 1238.16 221.965C1238.07 221.781 1237.95 221.629 1237.79 221.509C1237.63 221.381 1237.45 221.285 1237.23 221.221C1237.03 221.157 1236.8 221.125 1236.55 221.125C1236.09 221.125 1235.69 221.229 1235.34 221.437C1234.99 221.637 1234.73 221.917 1234.56 222.277L1234.03 221.773C1234.13 221.565 1234.26 221.377 1234.44 221.209C1234.61 221.033 1234.81 220.885 1235.04 220.765C1235.26 220.645 1235.51 220.553 1235.78 220.489C1236.05 220.417 1236.33 220.381 1236.62 220.381C1236.99 220.381 1237.33 220.433 1237.63 220.537C1237.94 220.641 1238.21 220.789 1238.43 220.981C1238.66 221.165 1238.83 221.389 1238.95 221.653C1239.08 221.917 1239.14 222.209 1239.14 222.529C1239.14 222.769 1239.11 223.001 1239.03 223.225C1238.96 223.441 1238.86 223.637 1238.72 223.813C1238.59 223.981 1238.42 224.125 1238.22 224.245C1238.03 224.357 1237.81 224.429 1237.56 224.461ZM1243.18 223.549C1243.57 223.549 1243.93 223.617 1244.27 223.753C1244.6 223.881 1244.9 224.065 1245.14 224.305C1245.4 224.545 1245.6 224.833 1245.74 225.169C1245.89 225.497 1245.96 225.861 1245.96 226.261C1245.96 226.685 1245.88 227.069 1245.72 227.413C1245.57 227.765 1245.36 228.061 1245.08 228.301C1244.82 228.549 1244.51 228.741 1244.15 228.877C1243.79 229.013 1243.4 229.081 1243 229.081C1242.69 229.081 1242.4 229.041 1242.12 228.961C1241.85 228.889 1241.6 228.781 1241.36 228.637C1241.13 228.493 1240.92 228.321 1240.73 228.121C1240.54 227.921 1240.39 227.697 1240.27 227.449L1240.81 227.041C1241.04 227.433 1241.34 227.749 1241.72 227.989C1242.12 228.229 1242.54 228.349 1243.01 228.349C1243.3 228.349 1243.58 228.297 1243.84 228.193C1244.09 228.097 1244.32 227.957 1244.51 227.773C1244.7 227.589 1244.85 227.369 1244.95 227.113C1245.06 226.857 1245.12 226.577 1245.12 226.273C1245.12 225.977 1245.07 225.709 1244.96 225.469C1244.86 225.221 1244.72 225.009 1244.53 224.833C1244.35 224.657 1244.13 224.521 1243.88 224.425C1243.64 224.329 1243.37 224.281 1243.08 224.281C1242.7 224.281 1242.35 224.365 1242.01 224.533C1241.68 224.693 1241.42 224.929 1241.21 225.241H1240.45C1240.46 225.193 1240.48 225.085 1240.51 224.917C1240.54 224.749 1240.58 224.549 1240.63 224.317C1240.68 224.085 1240.73 223.829 1240.79 223.549C1240.84 223.261 1240.9 222.973 1240.96 222.685C1241.09 222.013 1241.24 221.265 1241.4 220.441H1245.52V221.197H1242.01L1241.42 224.257C1241.63 224.033 1241.88 223.861 1242.18 223.741C1242.48 223.613 1242.82 223.549 1243.18 223.549ZM1248.67 222.097C1248.42 222.097 1248.19 222.053 1247.96 221.965C1247.75 221.877 1247.56 221.757 1247.4 221.605C1247.24 221.445 1247.11 221.261 1247.02 221.053C1246.92 220.845 1246.87 220.621 1246.87 220.381C1246.87 220.141 1246.92 219.917 1247.02 219.709C1247.11 219.501 1247.24 219.321 1247.4 219.169C1247.56 219.009 1247.75 218.885 1247.96 218.797C1248.19 218.701 1248.42 218.653 1248.67 218.653C1248.92 218.653 1249.15 218.701 1249.37 218.797C1249.58 218.885 1249.77 219.009 1249.93 219.169C1250.1 219.321 1250.23 219.501 1250.32 219.709C1250.41 219.917 1250.46 220.141 1250.46 220.381C1250.46 220.621 1250.41 220.845 1250.32 221.053C1250.23 221.261 1250.1 221.445 1249.93 221.605C1249.77 221.757 1249.58 221.877 1249.37 221.965C1249.15 222.053 1248.92 222.097 1248.67 222.097ZM1248.67 221.629C1248.83 221.629 1248.98 221.597 1249.13 221.533C1249.27 221.461 1249.4 221.369 1249.5 221.257C1249.61 221.137 1249.7 221.005 1249.75 220.861C1249.82 220.709 1249.85 220.549 1249.85 220.381C1249.85 220.205 1249.82 220.041 1249.75 219.889C1249.69 219.737 1249.6 219.605 1249.49 219.493C1249.38 219.381 1249.26 219.293 1249.12 219.229C1248.97 219.165 1248.82 219.133 1248.67 219.133C1248.5 219.133 1248.35 219.169 1248.2 219.241C1248.06 219.305 1247.93 219.397 1247.82 219.517C1247.72 219.629 1247.63 219.761 1247.57 219.913C1247.51 220.057 1247.48 220.213 1247.48 220.381C1247.48 220.549 1247.52 220.709 1247.58 220.861C1247.64 221.013 1247.73 221.149 1247.83 221.269C1247.94 221.381 1248.07 221.469 1248.22 221.533C1248.36 221.597 1248.51 221.629 1248.67 221.629ZM1252.69 227.413C1252.44 227.413 1252.21 227.369 1252 227.281C1251.78 227.193 1251.59 227.073 1251.42 226.921C1251.26 226.761 1251.13 226.577 1251.04 226.369C1250.95 226.153 1250.9 225.925 1250.9 225.685C1250.9 225.445 1250.95 225.221 1251.04 225.013C1251.13 224.805 1251.26 224.625 1251.42 224.473C1251.59 224.313 1251.78 224.189 1252 224.101C1252.21 224.013 1252.44 223.969 1252.69 223.969C1252.94 223.969 1253.17 224.013 1253.39 224.101C1253.61 224.189 1253.8 224.313 1253.96 224.473C1254.12 224.625 1254.25 224.805 1254.35 225.013C1254.44 225.221 1254.49 225.445 1254.49 225.685C1254.49 225.925 1254.44 226.153 1254.35 226.369C1254.25 226.577 1254.12 226.761 1253.96 226.921C1253.8 227.073 1253.61 227.193 1253.39 227.281C1253.17 227.369 1252.94 227.413 1252.69 227.413ZM1252.69 226.933C1252.86 226.933 1253.01 226.901 1253.15 226.837C1253.29 226.765 1253.42 226.673 1253.52 226.561C1253.63 226.449 1253.72 226.317 1253.77 226.165C1253.84 226.013 1253.87 225.853 1253.87 225.685C1253.87 225.517 1253.84 225.357 1253.77 225.205C1253.71 225.053 1253.62 224.921 1253.51 224.809C1253.4 224.689 1253.28 224.597 1253.14 224.533C1252.99 224.469 1252.84 224.437 1252.69 224.437C1252.53 224.437 1252.38 224.473 1252.24 224.545C1252.09 224.609 1251.96 224.701 1251.85 224.821C1251.75 224.933 1251.66 225.065 1251.6 225.217C1251.54 225.361 1251.52 225.517 1251.52 225.685C1251.52 225.861 1251.55 226.025 1251.61 226.177C1251.68 226.329 1251.76 226.461 1251.86 226.573C1251.98 226.685 1252.1 226.773 1252.24 226.837C1252.38 226.901 1252.53 226.933 1252.69 226.933ZM1247.17 226.969L1250.52 222.889L1253.78 218.725L1254.2 219.085L1250.86 223.165L1247.58 227.341L1247.17 226.969Z" fill="#282D32"/>
<path opacity="0.5" d="M1229.73 162.892V162.136H1233.24V162.892H1229.73ZM1234.4 165.784C1234.4 165.512 1234.43 165.24 1234.48 164.968C1234.52 164.688 1234.62 164.412 1234.75 164.14C1234.9 163.868 1235.1 163.608 1235.35 163.36C1235.62 163.104 1235.96 162.864 1236.4 162.64C1236.63 162.52 1236.87 162.404 1237.12 162.292C1237.37 162.172 1237.6 162.04 1237.81 161.896C1238.03 161.752 1238.2 161.592 1238.34 161.416C1238.48 161.232 1238.54 161.02 1238.54 160.78C1238.54 160.628 1238.51 160.48 1238.44 160.336C1238.37 160.184 1238.27 160.052 1238.14 159.94C1238.01 159.82 1237.84 159.724 1237.64 159.652C1237.45 159.58 1237.22 159.544 1236.96 159.544C1236.7 159.544 1236.46 159.584 1236.25 159.664C1236.04 159.736 1235.86 159.824 1235.7 159.928C1235.55 160.032 1235.42 160.144 1235.3 160.264C1235.19 160.376 1235.11 160.468 1235.05 160.54L1234.51 159.952C1234.56 159.904 1234.65 159.816 1234.79 159.688C1234.92 159.56 1235.1 159.432 1235.32 159.304C1235.54 159.176 1235.8 159.064 1236.1 158.968C1236.39 158.864 1236.72 158.812 1237.09 158.812C1237.46 158.812 1237.79 158.864 1238.08 158.968C1238.36 159.064 1238.61 159.2 1238.81 159.376C1239.01 159.552 1239.16 159.756 1239.26 159.988C1239.37 160.212 1239.42 160.448 1239.42 160.696C1239.42 161.024 1239.35 161.308 1239.2 161.548C1239.06 161.788 1238.88 161.996 1238.66 162.172C1238.46 162.348 1238.23 162.5 1237.99 162.628C1237.75 162.748 1237.54 162.852 1237.34 162.94C1237.09 163.052 1236.84 163.18 1236.59 163.324C1236.35 163.46 1236.13 163.612 1235.94 163.78C1235.75 163.948 1235.59 164.136 1235.46 164.344C1235.34 164.552 1235.28 164.784 1235.28 165.04H1239.55V165.784H1234.4ZM1243.46 162.04C1243.85 162.04 1244.21 162.108 1244.55 162.244C1244.89 162.372 1245.18 162.556 1245.43 162.796C1245.68 163.036 1245.88 163.324 1246.03 163.66C1246.17 163.988 1246.24 164.352 1246.24 164.752C1246.24 165.176 1246.16 165.56 1246 165.904C1245.85 166.256 1245.64 166.552 1245.37 166.792C1245.1 167.04 1244.79 167.232 1244.43 167.368C1244.07 167.504 1243.69 167.572 1243.28 167.572C1242.97 167.572 1242.68 167.532 1242.4 167.452C1242.13 167.38 1241.88 167.272 1241.65 167.128C1241.41 166.984 1241.2 166.812 1241.01 166.612C1240.83 166.412 1240.67 166.188 1240.55 165.94L1241.09 165.532C1241.32 165.924 1241.62 166.24 1242.01 166.48C1242.4 166.72 1242.83 166.84 1243.29 166.84C1243.59 166.84 1243.86 166.788 1244.12 166.684C1244.37 166.588 1244.6 166.448 1244.79 166.264C1244.98 166.08 1245.13 165.86 1245.23 165.604C1245.35 165.348 1245.4 165.068 1245.4 164.764C1245.4 164.468 1245.35 164.2 1245.25 163.96C1245.14 163.712 1245 163.5 1244.81 163.324C1244.63 163.148 1244.41 163.012 1244.17 162.916C1243.92 162.82 1243.65 162.772 1243.36 162.772C1242.99 162.772 1242.63 162.856 1242.29 163.024C1241.97 163.184 1241.7 163.42 1241.49 163.732H1240.73C1240.74 163.684 1240.76 163.576 1240.79 163.408C1240.83 163.24 1240.87 163.04 1240.91 162.808C1240.96 162.576 1241.01 162.32 1241.07 162.04C1241.13 161.752 1241.18 161.464 1241.24 161.176C1241.37 160.504 1241.52 159.756 1241.68 158.932H1245.8V159.688H1242.29L1241.71 162.748C1241.91 162.524 1242.17 162.352 1242.46 162.232C1242.77 162.104 1243.1 162.04 1243.46 162.04ZM1248.95 160.588C1248.71 160.588 1248.47 160.544 1248.25 160.456C1248.03 160.368 1247.84 160.248 1247.68 160.096C1247.52 159.936 1247.39 159.752 1247.3 159.544C1247.2 159.336 1247.15 159.112 1247.15 158.872C1247.15 158.632 1247.2 158.408 1247.3 158.2C1247.39 157.992 1247.52 157.812 1247.68 157.66C1247.84 157.5 1248.03 157.376 1248.25 157.288C1248.47 157.192 1248.71 157.144 1248.95 157.144C1249.2 157.144 1249.43 157.192 1249.65 157.288C1249.87 157.376 1250.05 157.5 1250.21 157.66C1250.38 157.812 1250.51 157.992 1250.6 158.2C1250.69 158.408 1250.74 158.632 1250.74 158.872C1250.74 159.112 1250.69 159.336 1250.6 159.544C1250.51 159.752 1250.38 159.936 1250.21 160.096C1250.05 160.248 1249.87 160.368 1249.65 160.456C1249.43 160.544 1249.2 160.588 1248.95 160.588ZM1248.95 160.12C1249.11 160.12 1249.27 160.088 1249.41 160.024C1249.55 159.952 1249.68 159.86 1249.78 159.748C1249.89 159.628 1249.98 159.496 1250.03 159.352C1250.1 159.2 1250.13 159.04 1250.13 158.872C1250.13 158.696 1250.1 158.532 1250.03 158.38C1249.97 158.228 1249.88 158.096 1249.77 157.984C1249.67 157.872 1249.54 157.784 1249.4 157.72C1249.25 157.656 1249.11 157.624 1248.95 157.624C1248.79 157.624 1248.63 157.66 1248.49 157.732C1248.34 157.796 1248.21 157.888 1248.1 158.008C1248 158.12 1247.91 158.252 1247.85 158.404C1247.79 158.548 1247.77 158.704 1247.77 158.872C1247.77 159.04 1247.8 159.2 1247.86 159.352C1247.93 159.504 1248.01 159.64 1248.11 159.76C1248.23 159.872 1248.35 159.96 1248.5 160.024C1248.64 160.088 1248.79 160.12 1248.95 160.12ZM1252.97 165.904C1252.73 165.904 1252.49 165.86 1252.28 165.772C1252.06 165.684 1251.87 165.564 1251.7 165.412C1251.54 165.252 1251.41 165.068 1251.32 164.86C1251.23 164.644 1251.19 164.416 1251.19 164.176C1251.19 163.936 1251.23 163.712 1251.32 163.504C1251.41 163.296 1251.54 163.116 1251.7 162.964C1251.87 162.804 1252.06 162.68 1252.28 162.592C1252.49 162.504 1252.73 162.46 1252.97 162.46C1253.22 162.46 1253.45 162.504 1253.67 162.592C1253.89 162.68 1254.09 162.804 1254.25 162.964C1254.41 163.116 1254.53 163.296 1254.63 163.504C1254.73 163.712 1254.77 163.936 1254.77 164.176C1254.77 164.416 1254.73 164.644 1254.63 164.86C1254.53 165.068 1254.41 165.252 1254.25 165.412C1254.09 165.564 1253.89 165.684 1253.67 165.772C1253.45 165.86 1253.22 165.904 1252.97 165.904ZM1252.97 165.424C1253.14 165.424 1253.29 165.392 1253.43 165.328C1253.57 165.256 1253.7 165.164 1253.8 165.052C1253.91 164.94 1254 164.808 1254.05 164.656C1254.12 164.504 1254.15 164.344 1254.15 164.176C1254.15 164.008 1254.12 163.848 1254.05 163.696C1253.99 163.544 1253.9 163.412 1253.79 163.3C1253.69 163.18 1253.56 163.088 1253.42 163.024C1253.27 162.96 1253.13 162.928 1252.97 162.928C1252.81 162.928 1252.66 162.964 1252.52 163.036C1252.37 163.1 1252.25 163.192 1252.13 163.312C1252.03 163.424 1251.95 163.556 1251.88 163.708C1251.83 163.852 1251.8 164.008 1251.8 164.176C1251.8 164.352 1251.83 164.516 1251.89 164.668C1251.96 164.82 1252.04 164.952 1252.15 165.064C1252.26 165.176 1252.38 165.264 1252.52 165.328C1252.66 165.392 1252.81 165.424 1252.97 165.424ZM1247.45 165.46L1250.8 161.38L1254.07 157.216L1254.49 157.576L1251.14 161.656L1247.86 165.832L1247.45 165.46Z" fill="#282D32"/>
<path opacity="0.5" d="M1229.73 99.8068V99.0508H1233.24V99.8068H1229.73ZM1238.63 101.955V102.699H1234.56V101.955H1236.27V96.8188C1236.2 96.9148 1236.09 97.0188 1235.93 97.1308C1235.78 97.2428 1235.61 97.3468 1235.42 97.4428C1235.23 97.5388 1235.04 97.6188 1234.84 97.6828C1234.64 97.7468 1234.46 97.7788 1234.31 97.7788V96.9868C1234.5 96.9868 1234.7 96.9348 1234.91 96.8308C1235.14 96.7268 1235.34 96.6068 1235.54 96.4708C1235.74 96.3348 1235.9 96.2068 1236.04 96.0868C1236.18 95.9668 1236.25 95.8868 1236.27 95.8468H1237.11V101.955H1238.63ZM1242.22 98.9548C1242.61 98.9548 1242.97 99.0228 1243.31 99.1588C1243.64 99.2868 1243.94 99.4708 1244.18 99.7108C1244.44 99.9508 1244.64 100.239 1244.78 100.575C1244.93 100.903 1245 101.267 1245 101.667C1245 102.091 1244.92 102.475 1244.76 102.819C1244.61 103.171 1244.4 103.467 1244.12 103.707C1243.86 103.955 1243.55 104.147 1243.19 104.283C1242.83 104.419 1242.44 104.487 1242.04 104.487C1241.73 104.487 1241.44 104.447 1241.16 104.367C1240.89 104.295 1240.64 104.187 1240.4 104.043C1240.17 103.899 1239.96 103.727 1239.77 103.527C1239.58 103.327 1239.43 103.103 1239.31 102.855L1239.85 102.447C1240.08 102.839 1240.38 103.155 1240.76 103.395C1241.16 103.635 1241.58 103.755 1242.05 103.755C1242.34 103.755 1242.62 103.703 1242.88 103.599C1243.13 103.503 1243.36 103.363 1243.55 103.179C1243.74 102.995 1243.89 102.775 1243.99 102.519C1244.1 102.263 1244.16 101.983 1244.16 101.679C1244.16 101.383 1244.11 101.115 1244 100.875C1243.9 100.627 1243.76 100.415 1243.57 100.239C1243.39 100.063 1243.17 99.9268 1242.92 99.8308C1242.68 99.7348 1242.41 99.6868 1242.12 99.6868C1241.74 99.6868 1241.39 99.7708 1241.05 99.9388C1240.72 100.099 1240.46 100.335 1240.25 100.647H1239.49C1239.5 100.599 1239.52 100.491 1239.55 100.323C1239.58 100.155 1239.62 99.9548 1239.67 99.7228C1239.72 99.4908 1239.77 99.2348 1239.83 98.9548C1239.88 98.6668 1239.94 98.3788 1240 98.0908C1240.13 97.4188 1240.28 96.6708 1240.44 95.8468H1244.56V96.6028H1241.05L1240.46 99.6628C1240.67 99.4388 1240.92 99.2668 1241.22 99.1468C1241.52 99.0188 1241.86 98.9548 1242.22 98.9548ZM1247.71 97.5028C1247.46 97.5028 1247.23 97.4588 1247 97.3708C1246.79 97.2828 1246.6 97.1628 1246.44 97.0108C1246.28 96.8508 1246.15 96.6668 1246.05 96.4588C1245.96 96.2508 1245.91 96.0268 1245.91 95.7868C1245.91 95.5468 1245.96 95.3228 1246.05 95.1148C1246.15 94.9068 1246.28 94.7268 1246.44 94.5748C1246.6 94.4148 1246.79 94.2908 1247 94.2028C1247.23 94.1068 1247.46 94.0588 1247.71 94.0588C1247.96 94.0588 1248.19 94.1068 1248.41 94.2028C1248.62 94.2908 1248.81 94.4148 1248.97 94.5748C1249.14 94.7268 1249.27 94.9068 1249.35 95.1148C1249.45 95.3228 1249.5 95.5468 1249.5 95.7868C1249.5 96.0268 1249.45 96.2508 1249.35 96.4588C1249.27 96.6668 1249.14 96.8508 1248.97 97.0108C1248.81 97.1628 1248.62 97.2828 1248.41 97.3708C1248.19 97.4588 1247.96 97.5028 1247.71 97.5028ZM1247.71 97.0348C1247.87 97.0348 1248.02 97.0028 1248.17 96.9388C1248.31 96.8668 1248.43 96.7748 1248.54 96.6628C1248.65 96.5428 1248.73 96.4108 1248.79 96.2668C1248.85 96.1148 1248.89 95.9548 1248.89 95.7868C1248.89 95.6108 1248.85 95.4468 1248.79 95.2948C1248.73 95.1428 1248.64 95.0108 1248.53 94.8988C1248.42 94.7868 1248.3 94.6988 1248.15 94.6348C1248.01 94.5708 1247.86 94.5388 1247.71 94.5388C1247.54 94.5388 1247.39 94.5748 1247.24 94.6468C1247.1 94.7108 1246.97 94.8028 1246.86 94.9228C1246.75 95.0348 1246.67 95.1668 1246.61 95.3188C1246.55 95.4628 1246.52 95.6188 1246.52 95.7868C1246.52 95.9548 1246.55 96.1148 1246.62 96.2668C1246.68 96.4188 1246.77 96.5548 1246.87 96.6748C1246.98 96.7868 1247.11 96.8748 1247.25 96.9388C1247.4 97.0028 1247.55 97.0348 1247.71 97.0348ZM1251.73 102.819C1251.48 102.819 1251.25 102.775 1251.03 102.687C1250.82 102.599 1250.63 102.479 1250.46 102.327C1250.3 102.167 1250.17 101.983 1250.07 101.775C1249.99 101.559 1249.94 101.331 1249.94 101.091C1249.94 100.851 1249.99 100.627 1250.07 100.419C1250.17 100.211 1250.3 100.031 1250.46 99.8788C1250.63 99.7188 1250.82 99.5948 1251.03 99.5068C1251.25 99.4188 1251.48 99.3748 1251.73 99.3748C1251.98 99.3748 1252.21 99.4188 1252.43 99.5068C1252.65 99.5948 1252.84 99.7188 1253 99.8788C1253.16 100.031 1253.29 100.211 1253.39 100.419C1253.48 100.627 1253.53 100.851 1253.53 101.091C1253.53 101.331 1253.48 101.559 1253.39 101.775C1253.29 101.983 1253.16 102.167 1253 102.327C1252.84 102.479 1252.65 102.599 1252.43 102.687C1252.21 102.775 1251.98 102.819 1251.73 102.819ZM1251.73 102.339C1251.9 102.339 1252.05 102.307 1252.19 102.243C1252.33 102.171 1252.45 102.079 1252.56 101.967C1252.67 101.855 1252.75 101.723 1252.81 101.571C1252.87 101.419 1252.91 101.259 1252.91 101.091C1252.91 100.923 1252.87 100.763 1252.81 100.611C1252.75 100.459 1252.66 100.327 1252.55 100.215C1252.44 100.095 1252.32 100.003 1252.17 99.9388C1252.03 99.8748 1251.88 99.8428 1251.73 99.8428C1251.57 99.8428 1251.42 99.8788 1251.27 99.9508C1251.13 100.015 1251 100.107 1250.89 100.227C1250.79 100.339 1250.7 100.471 1250.64 100.623C1250.58 100.767 1250.55 100.923 1250.55 101.091C1250.55 101.267 1250.59 101.431 1250.65 101.583C1250.71 101.735 1250.8 101.867 1250.9 101.979C1251.01 102.091 1251.14 102.179 1251.27 102.243C1251.42 102.307 1251.57 102.339 1251.73 102.339ZM1246.21 102.375L1249.56 98.2948L1252.82 94.1308L1253.24 94.4908L1249.89 98.5708L1246.62 102.747L1246.21 102.375Z" fill="#282D32"/>
<path opacity="0.5" d="M1229.73 40.6641V39.9081H1233.24V40.6641H1229.73ZM1237.34 39.8121C1237.73 39.8121 1238.1 39.8801 1238.43 40.0161C1238.77 40.1441 1239.06 40.3281 1239.31 40.5681C1239.56 40.8081 1239.76 41.0961 1239.91 41.4321C1240.05 41.7601 1240.12 42.1241 1240.12 42.5241C1240.12 42.9481 1240.04 43.3321 1239.88 43.6761C1239.73 44.0281 1239.52 44.3241 1239.25 44.5641C1238.98 44.8121 1238.67 45.0041 1238.31 45.1401C1237.95 45.2761 1237.57 45.3441 1237.16 45.3441C1236.86 45.3441 1236.56 45.3041 1236.28 45.2241C1236.01 45.1521 1235.76 45.0441 1235.53 44.9001C1235.3 44.7561 1235.08 44.5841 1234.89 44.3841C1234.71 44.1841 1234.56 43.9601 1234.44 43.7121L1234.98 43.3041C1235.2 43.6961 1235.5 44.0121 1235.89 44.2521C1236.28 44.4921 1236.71 44.6121 1237.17 44.6121C1237.47 44.6121 1237.74 44.5601 1238 44.4561C1238.26 44.3601 1238.48 44.2201 1238.67 44.0361C1238.86 43.8521 1239.01 43.6321 1239.12 43.3761C1239.23 43.1201 1239.28 42.8401 1239.28 42.5361C1239.28 42.2401 1239.23 41.9721 1239.13 41.7321C1239.02 41.4841 1238.88 41.2721 1238.7 41.0961C1238.51 40.9201 1238.3 40.7841 1238.05 40.6881C1237.8 40.5921 1237.53 40.5441 1237.24 40.5441C1236.87 40.5441 1236.51 40.6281 1236.18 40.7961C1235.85 40.9561 1235.58 41.1921 1235.37 41.5041H1234.62C1234.62 41.4561 1234.64 41.3481 1234.68 41.1801C1234.71 41.0121 1234.75 40.8121 1234.8 40.5801C1234.84 40.3481 1234.9 40.0921 1234.95 39.8121C1235.01 39.5241 1235.06 39.2361 1235.12 38.9481C1235.26 38.2761 1235.4 37.5281 1235.56 36.7041H1239.68V37.4601H1236.18L1235.59 40.5201C1235.8 40.2961 1236.05 40.1241 1236.34 40.0041C1236.65 39.8761 1236.98 39.8121 1237.34 39.8121ZM1242.84 38.3601C1242.59 38.3601 1242.35 38.3161 1242.13 38.2281C1241.91 38.1401 1241.72 38.0201 1241.56 37.8681C1241.4 37.7081 1241.28 37.5241 1241.18 37.3161C1241.08 37.1081 1241.04 36.8841 1241.04 36.6441C1241.04 36.4041 1241.08 36.1801 1241.18 35.9721C1241.28 35.7641 1241.4 35.5841 1241.56 35.4321C1241.72 35.2721 1241.91 35.1481 1242.13 35.0601C1242.35 34.9641 1242.59 34.9161 1242.84 34.9161C1243.08 34.9161 1243.32 34.9641 1243.53 35.0601C1243.75 35.1481 1243.94 35.2721 1244.1 35.4321C1244.26 35.5841 1244.39 35.7641 1244.48 35.9721C1244.58 36.1801 1244.62 36.4041 1244.62 36.6441C1244.62 36.8841 1244.58 37.1081 1244.48 37.3161C1244.39 37.5241 1244.26 37.7081 1244.1 37.8681C1243.94 38.0201 1243.75 38.1401 1243.53 38.2281C1243.32 38.3161 1243.08 38.3601 1242.84 38.3601ZM1242.84 37.8921C1243 37.8921 1243.15 37.8601 1243.29 37.7961C1243.44 37.7241 1243.56 37.6321 1243.66 37.5201C1243.78 37.4001 1243.86 37.2681 1243.92 37.1241C1243.98 36.9721 1244.01 36.8121 1244.01 36.6441C1244.01 36.4681 1243.98 36.3041 1243.92 36.1521C1243.85 36.0001 1243.76 35.8681 1243.65 35.7561C1243.55 35.6441 1243.42 35.5561 1243.28 35.4921C1243.14 35.4281 1242.99 35.3961 1242.84 35.3961C1242.67 35.3961 1242.51 35.4321 1242.37 35.5041C1242.22 35.5681 1242.1 35.6601 1241.98 35.7801C1241.88 35.8921 1241.8 36.0241 1241.73 36.1761C1241.68 36.3201 1241.65 36.4761 1241.65 36.6441C1241.65 36.8121 1241.68 36.9721 1241.74 37.1241C1241.81 37.2761 1241.89 37.4121 1242 37.5321C1242.11 37.6441 1242.24 37.7321 1242.38 37.7961C1242.52 37.8601 1242.68 37.8921 1242.84 37.8921ZM1246.86 43.6761C1246.61 43.6761 1246.38 43.6321 1246.16 43.5441C1245.94 43.4561 1245.75 43.3361 1245.58 43.1841C1245.42 43.0241 1245.3 42.8401 1245.2 42.6321C1245.11 42.4161 1245.07 42.1881 1245.07 41.9481C1245.07 41.7081 1245.11 41.4841 1245.2 41.2761C1245.3 41.0681 1245.42 40.8881 1245.58 40.7361C1245.75 40.5761 1245.94 40.4521 1246.16 40.3641C1246.38 40.2761 1246.61 40.2321 1246.86 40.2321C1247.1 40.2321 1247.34 40.2761 1247.55 40.3641C1247.78 40.4521 1247.97 40.5761 1248.13 40.7361C1248.29 40.8881 1248.42 41.0681 1248.51 41.2761C1248.61 41.4841 1248.66 41.7081 1248.66 41.9481C1248.66 42.1881 1248.61 42.4161 1248.51 42.6321C1248.42 42.8401 1248.29 43.0241 1248.13 43.1841C1247.97 43.3361 1247.78 43.4561 1247.55 43.5441C1247.34 43.6321 1247.1 43.6761 1246.86 43.6761ZM1246.86 43.1961C1247.02 43.1961 1247.18 43.1641 1247.31 43.1001C1247.46 43.0281 1247.58 42.9361 1247.68 42.8241C1247.8 42.7121 1247.88 42.5801 1247.94 42.4281C1248 42.2761 1248.03 42.1161 1248.03 41.9481C1248.03 41.7801 1248 41.6201 1247.94 41.4681C1247.87 41.3161 1247.78 41.1841 1247.67 41.0721C1247.57 40.9521 1247.44 40.8601 1247.3 40.7961C1247.16 40.7321 1247.01 40.7001 1246.86 40.7001C1246.7 40.7001 1246.54 40.7361 1246.4 40.8081C1246.26 40.8721 1246.13 40.9641 1246.02 41.0841C1245.91 41.1961 1245.83 41.3281 1245.76 41.4801C1245.71 41.6241 1245.68 41.7801 1245.68 41.9481C1245.68 42.1241 1245.71 42.2881 1245.78 42.4401C1245.84 42.5921 1245.92 42.7241 1246.03 42.8361C1246.14 42.9481 1246.26 43.0361 1246.4 43.1001C1246.54 43.1641 1246.7 43.1961 1246.86 43.1961ZM1241.34 43.2321L1244.68 39.1521L1247.95 34.9881L1248.37 35.3481L1245.02 39.4281L1241.74 43.6041L1241.34 43.2321Z" fill="#282D32"/>
<path d="M1.15381 3.27637L12.5355 12.3817L14.8119 30.5925H18.7955L21.6409 38.5597L25.0554 35.1452L28.4699 24.9016L32.4535 47.6651L34.7299 74.9812L38.1444 72.1358L42.128 102.866L48.388 78.9648L55.217 109.126L58.0624 97.7447L61.4769 101.159L64.3224 85.2248L68.306 133.028L72.2896 123.923L74.5659 100.021L79.1186 95.4683L81.395 104.574L84.8095 101.159L88.224 107.419L94.4839 173.433L98.4675 171.157L102.451 160.913H106.435L108.711 163.19L110.987 188.229L114.971 193.351L117.816 172.295L121.8 164.897C122.749 176.089 124.646 198.245 124.646 197.335C124.646 196.424 126.922 186.332 128.06 181.4L131.475 176.848L138.304 200.18L141.149 195.058L145.702 196.197L148.547 193.351L151.393 175.14L154.238 178.555L158.222 159.206L161.067 158.637L164.482 162.051L167.896 159.206L171.88 159.775L174.725 189.368L177.571 199.042L180.985 193.351L183.83 199.042L187.814 187.66L198.058 204.164L200.903 225.789L204.887 229.773L207.163 243.431L213.423 240.585L217.976 239.447L224.236 222.375L228.219 233.187L231.065 229.204H237.325L240.739 236.033H244.154L250.983 251.398L253.828 284.974L257.812 300.909L260.657 290.665L267.486 283.836L270.901 286.112L280.006 274.161L283.99 276.438L287.973 269.04L290.819 267.902L294.233 284.974L297.079 281.56L301.062 242.862H303.908L308.46 231.48L310.168 222.375L317.566 216.684L323.826 234.894L330.655 238.309L334.069 233.187L337.484 216.684L340.329 221.806L343.744 251.398L347.727 257.089L350.004 256.52L356.833 283.836L360.816 272.454L363.662 281.56L369.922 263.349L373.905 264.487L377.32 277.576L380.165 227.496L384.149 216.684L390.409 234.894L393.254 264.487L397.238 262.78L399.514 270.747L403.498 274.161L408.05 267.902L410.327 239.447L413.172 259.934L417.156 267.902L420.57 266.763L423.416 278.714L426.83 259.934L429.676 263.918L433.659 246.845L437.074 247.983L439.919 240.585L443.903 236.602L446.179 244L450.163 247.983L453.008 234.894L456.992 230.911L459.837 220.667L466.666 215.546L469.512 194.489L476.341 189.937L480.324 192.782L483.17 206.44L486.584 200.18L489.43 203.595L492.844 199.042L496.828 197.335L499.673 206.44L503.657 227.496L505.933 225.22L510.486 236.602L513.331 232.049L516.746 237.74L519.591 261.642L526.989 246.845L529.835 257.658L533.249 251.398L536.664 254.243L539.509 259.934L542.924 249.122L546.907 243.146L552.598 250.829L556.013 259.934L562.842 261.642L566.256 254.243L569.671 273.592L572.516 262.78L576.5 258.796L578.207 266.763L582.76 278.714L585.036 270.747L589.589 269.609C590.727 272.454 593.003 277.804 593.003 276.438C593.003 275.072 594.9 264.866 595.849 259.934L599.263 287.82L606.662 298.632L610.076 316.274L612.352 347.005L616.336 338.468L619.181 355.541L623.734 356.679L630.563 344.159L632.27 335.054L636.254 348.712L639.099 343.021L642.514 358.955L645.359 345.866L649.343 354.403L653.896 350.988L655.603 345.866L659.017 355.541L662.432 350.419L666.416 350.988L672.676 358.955C674.762 357.058 678.935 353.037 678.935 352.126C678.935 351.216 681.212 338.468 682.35 332.208L685.195 331.07L689.179 348.712L692.024 343.021L696.008 350.988L698.284 348.712L702.268 348.143L705.113 334.485C706.631 335.243 709.666 337.102 709.666 338.468C709.666 339.834 711.563 343.969 712.512 345.866L715.357 347.005L721.617 362.37L726.17 381.15L729.015 415.295L731.86 418.709L734.706 415.295L739.259 434.644L742.673 433.506L745.519 447.164L749.502 433.506L755.193 431.798L758.038 438.058L762.022 427.815L768.851 424.4L781.371 438.058H784.785L788.2 444.887H793.891L799.013 435.782H803.565L809.256 422.693H815.516L824.622 442.611L828.036 435.782L838.849 426.677L841.694 431.229L847.954 406.759L850.799 409.035H855.352L858.767 414.157L864.458 415.295L867.872 424.4L871.287 426.677L877.547 403.344H883.237L888.359 407.897H892.343L895.757 411.311L899.172 411.88L901.448 414.157L905.432 407.897L908.277 411.311L911.692 409.035L913.968 403.344L917.952 409.035L921.935 402.206L924.212 403.344L928.764 398.222H932.179L939.577 402.206L944.13 407.897L948.113 409.035L951.528 431.229L957.788 424.4L961.771 425.538L964.617 423.831L967.462 425.538L970.877 423.262L974.291 435.782L978.275 438.058L980.551 441.473L985.104 435.782L988.518 439.766L994.209 435.782L999.9 439.196L1004.45 438.058L1008.44 441.473L1010.14 448.871L1014.7 444.318H1018.11L1020.96 424.4L1025.51 422.693L1031.2 415.295L1034.05 435.782H1038.03L1040.31 441.473L1047.7 436.92L1050.55 442.611L1054.53 441.473L1056.81 447.733L1061.36 451.716L1064.21 442.611L1071.04 447.733L1073.88 448.871L1077.86 444.318L1080.71 446.595L1085.83 441.473L1090.38 442.611L1097.78 446.595L1104.04 434.075L1112.58 440.335L1114.86 442.611H1121.12L1125.1 446.595L1134.2 443.749L1140.46 446.595L1147.29 441.473L1154.12 446.595H1158.11L1167.78 441.473L1170.06 443.749L1176.32 431.229L1180.87 434.075L1184.28 431.229L1187.13 430.66L1194.53 434.075H1197.37L1200.79 436.92H1203.63L1207.05 427.246L1210.46 426.107L1216.15 431.229L1220.14 432.367" stroke="#95B7F7"/>
<path d="M8.55182 1L15.9499 43.6815L20.5026 31.7307L23.3481 33.4379L25.6244 11.8126L29.608 10.1054L34.1607 34.5761L36.437 73.274H39.2825L43.2661 117.094L49.526 53.925L56.3551 94.3301L59.2005 65.3067L62.615 66.4449L66.0295 24.9016L70.0131 68.7213L79.6876 35.7143L82.533 37.9906L86.5166 31.7307L88.793 36.8524L95.622 86.932L99.6056 97.1756L103.02 67.5831L105.866 76.1194L109.849 51.0796L112.695 86.932L116.109 101.159L119.524 90.3465L122.938 84.6557L125.784 131.321L129.767 123.354L133.182 113.11L136.027 127.337H139.442L142.287 119.939L146.271 123.354L148.547 130.183L155.945 119.939L159.36 105.143L162.205 111.972L165.62 107.419H169.034L172.449 92.0538L178.709 137.012L182.692 134.166L185.538 139.288L188.952 125.061L191.798 122.784L195.212 140.426L199.765 145.548L201.472 175.14L205.456 176.848L210.577 209.855L212.854 217.822L215.13 208.716L218.545 220.098L221.39 192.782V185.384L225.374 163.759L229.357 172.864L231.634 160.913L238.463 152.377L242.446 175.14L249.275 187.66L254.966 254.243L258.95 283.836L261.795 260.503L265.779 270.178L268.624 259.365L272.039 267.332L274.884 254.243L278.299 257.658L281.144 254.243L285.128 266.194L288.542 270.178L291.957 259.365L295.371 274.73L298.217 271.885L304.477 232.618L308.46 225.789L311.875 214.407L315.289 238.878L318.704 224.082L324.964 244L327.809 242.293L332.362 246.276L334.069 242.293L338.622 214.976L342.605 226.927L344.882 242.293L348.296 245.707L351.142 245.138L357.971 285.543L361.954 269.04L364.8 277.007L368.783 280.99L370.491 269.04H373.905L379.027 283.836L381.872 246.276L385.287 236.602H387.563L390.978 241.154L394.392 269.04L397.807 259.365L401.221 267.901L404.636 262.211L408.619 261.642L410.896 251.398L414.879 270.747H421.139L424.554 280.421L427.968 270.747L430.814 270.178L434.797 259.365L441.057 247.983L444.472 245.138L447.886 253.105L451.87 247.983L454.715 240.585L458.13 236.602L460.406 232.049L463.821 234.894L468.943 228.635L471.219 216.684H474.634L480.893 206.44L484.308 216.684L488.292 199.611L491.137 209.855L494.552 197.904L501.95 204.164L504.795 227.496L507.641 211.562L511.055 224.082L513.9 220.098L517.884 228.635L519.591 253.105L524.144 232.049L527.559 222.944L530.973 230.911L534.388 229.204H537.233L541.217 238.309L543.493 230.342L547.477 224.082L550.891 229.204L553.737 240.585L557.151 238.309L559.996 243.431L563.411 245.707L567.395 242.293L570.809 257.658L574.224 253.105L577.638 238.309L583.898 265.625L587.313 254.243L590.158 255.382L594.142 259.365L596.987 243.431L600.971 263.349L603.816 265.056L610.645 287.25L612.921 338.468L616.905 322.534L620.32 365.215L624.303 368.061L627.149 347.004L630.563 340.744L633.409 326.517L637.392 339.606L639.669 333.346L643.652 354.403L646.498 331.639L650.481 336.192L656.741 320.826L660.725 322.534L663.57 312.29L666.985 313.997L670.399 335.623L673.814 337.33L677.228 331.639L680.074 332.777L684.057 317.412L686.903 319.119C687.851 326.328 689.862 340.517 690.317 339.606C690.772 338.696 692.783 333.157 693.732 330.501L697.146 339.606L699.992 337.33L703.975 339.606L709.666 347.004L714.219 349.281L716.495 348.143L720.479 350.988L723.324 368.061L730.153 410.742H733.568L736.413 399.929L739.828 422.124L743.811 417.571C744.57 423.072 746.201 433.847 746.657 432.936C747.112 432.026 749.502 422.314 750.64 417.571L756.9 413.018L759.746 417.571L766.006 393.67L769.989 395.377L773.404 399.929L776.818 401.068L783.078 414.157H787.062L789.338 415.295L795.598 414.157L800.151 402.775H803.565L807.549 395.377L810.394 393.1L816.654 391.393L825.76 413.018L833.727 395.377H836.003L840.556 384.564L842.832 386.84L845.678 373.751L849.661 368.061L853.076 377.166L855.352 370.337L862.75 376.028L866.165 374.89L869.579 390.824L872.425 385.702L876.408 365.215L880.392 356.11L882.668 344.159L888.928 353.833H895.757L900.31 337.899L902.586 327.086L906.001 323.672H909.415L913.968 315.136H918.521L923.074 311.721L925.35 316.274L929.903 311.721L935.593 321.965L939.008 320.826L942.992 323.672L949.251 341.883L952.097 357.817L956.65 352.126C957.408 346.815 959.04 336.192 959.495 336.192C959.95 336.192 961.961 337.33 962.91 337.899L966.324 339.606L968.6 341.883L972.584 337.899L975.999 357.817L981.689 360.663L985.104 351.557L991.364 357.248L998.762 359.524L1005.02 357.817L1009.57 362.37L1011.85 374.89L1015.83 357.817L1018.68 357.248L1020.96 345.866L1025.51 341.883L1032.34 344.159L1034.61 359.524L1039.17 357.817L1041.44 365.784L1049.41 357.248L1052.26 370.337L1055.67 364.077L1057.95 370.337C1059.27 371.096 1061.93 372.386 1061.93 371.475C1061.93 370.565 1064.21 364.646 1065.35 361.801L1068.76 359.524L1071.61 362.37H1076.16L1079 359.524L1081.85 364.077L1085.26 357.248L1088.68 353.264L1092.09 351.557L1096.64 354.403L1101.77 349.85C1102.9 347.194 1105.29 341.883 1105.75 341.883C1106.21 341.883 1108.98 344.538 1110.3 345.866L1110.87 350.988L1115.99 355.541L1117.7 360.663L1121.68 359.524L1125.1 365.784H1135.91L1141.6 368.061L1147.86 361.801L1154.12 364.077C1155.26 365.215 1157.65 367.492 1158.11 367.492C1158.56 367.492 1160.57 366.733 1161.52 366.353L1165.5 365.784L1168.35 360.663L1171.2 361.801L1178.02 347.574L1182.01 350.988L1184.28 341.314L1188.84 334.485L1194.53 314.567L1201.36 319.119L1204.77 310.014L1208.19 288.389L1212.17 294.079L1215.58 305.461L1219.57 310.014" stroke="#282D32"/>
</svg>
