<svg width="24" height="24" viewBox="0 0 24 24" fill="none" xmlns="http://www.w3.org/2000/svg">
<path fill-rule="evenodd" clip-rule="evenodd" d="M15.2575 17.0125C16.165 15.825 17.0525 14.5025 17.7075 13.175C18.3688 11.8337 18.75 10.5775 18.75 9.5C18.75 7.8424 18.0915 6.25269 16.9194 5.08058C15.7473 3.90848 14.1576 3.25 12.5 3.25C10.8424 3.25 9.25269 3.90848 8.08058 5.08058C6.90848 6.25269 6.25 7.8424 6.25 9.5C6.25 10.5775 6.63 11.8337 7.2925 13.175C7.9475 14.5025 8.835 15.825 9.7425 17.0125C10.6034 18.132 11.5239 19.2044 12.5 20.225C13.4761 19.2044 14.3966 18.132 15.2575 17.0125ZM20 9.5C20 14.8925 12.5 22 12.5 22C12.5 22 5 14.8925 5 9.5C5 7.51088 5.79018 5.60322 7.1967 4.1967C8.60322 2.79018 10.5109 2 12.5 2C14.4891 2 16.3968 2.79018 17.8033 4.1967C19.2098 5.60322 20 7.51088 20 9.5ZM10.7322 11.2678C11.2011 11.7366 11.837 12 12.5 12C13.163 12 13.7989 11.7366 14.2678 11.2678C14.7366 10.7989 15 10.163 15 9.5C15 8.83696 14.7366 8.20107 14.2678 7.73223C13.7989 7.26339 13.163 7 12.5 7C11.837 7 11.2011 7.26339 10.7322 7.73223C10.2634 8.20107 10 8.83696 10 9.5C10 10.163 10.2634 10.7989 10.7322 11.2678ZM15.1517 12.1517C14.4484 12.8549 13.4946 13.25 12.5 13.25C11.5054 13.25 10.5516 12.8549 9.84835 12.1517C9.14509 11.4484 8.75 10.4946 8.75 9.5C8.75 8.50544 9.14509 7.55161 9.84835 6.84835C10.5516 6.14509 11.5054 5.75 12.5 5.75C13.4946 5.75 14.4484 6.14509 15.1517 6.84835C15.8549 7.55161 16.25 8.50544 16.25 9.5C16.25 10.4946 15.8549 11.4484 15.1517 12.1517Z" fill="#282D32"/>
</svg>
