<svg width="24" height="24" viewBox="0 0 24 24" fill="none" xmlns="http://www.w3.org/2000/svg">
<path d="M2 7.33333C2 6.71449 2.26339 6.121 2.73223 5.68342C3.20107 5.24583 3.83696 5 4.5 5H19.5C20.163 5 20.7989 5.24583 21.2678 5.68342C21.7366 6.121 22 6.71449 22 7.33333V16.6667C22 17.2855 21.7366 17.879 21.2678 18.3166C20.7989 18.7542 20.163 19 19.5 19H4.5C3.83696 19 3.20107 18.7542 2.73223 18.3166C2.26339 17.879 2 17.2855 2 16.6667V7.33333ZM4.5 6.16667C4.16848 6.16667 3.85054 6.28958 3.61612 6.50838C3.3817 6.72717 3.25 7.02391 3.25 7.33333V7.5865L12 12.4865L20.75 7.5865V7.33333C20.75 7.02391 20.6183 6.72717 20.3839 6.50838C20.1495 6.28958 19.8315 6.16667 19.5 6.16667H4.5ZM20.75 8.94683L14.865 12.2427L20.75 15.6225V8.94683ZM20.7075 16.9688L13.6575 12.9193L12 13.8468L10.3425 12.9193L3.2925 16.9677C3.36353 17.2159 3.5204 17.4354 3.73874 17.5919C3.95708 17.7484 4.22468 17.8333 4.5 17.8333H19.5C19.7752 17.8334 20.0426 17.7487 20.261 17.5924C20.4793 17.4361 20.6362 17.2169 20.7075 16.9688ZM3.25 15.6225L9.135 12.2427L3.25 8.94683V15.6225Z" fill="#282D32"/>
</svg>
