<svg width="142" height="36" viewBox="0 0 142 36" fill="none" xmlns="http://www.w3.org/2000/svg">
<path d="M4.38462 8.45664L0 5.88053V13.9601L4.5 16.6533L9 13.9601V19.3465L13.2692 21.9226L22.5 16.6533L27 19.3465V5.88053L13.2692 13.6088L9 11.1498L13.2692 8.45664L9 5.88053L4.38462 8.45664Z" fill="#95B7F7"/>
<path d="M18.1154 5.88053V0.494141L13.2692 3.18734L18.1154 5.88053Z" fill="#95B7F7"/>
<path d="M27 27.5432L13.2692 35.5057L0 27.5432V19.8149L13.2692 28.0116L27 19.8149V27.5432Z" fill="#95B7F7"/>
<path d="M52.168 6.912H50.56V14.352H40.336V6.912H38.704V24H40.336V15.744H50.56V24H52.168V6.912ZM60.5944 11.304C57.0184 11.304 54.7144 13.872 54.7144 17.832C54.7144 21.816 56.9944 24.36 60.5944 24.36C64.1704 24.36 66.4024 21.864 66.4024 17.88C66.4024 13.848 64.1464 11.304 60.5944 11.304ZM60.5704 12.576C63.2104 12.576 64.8904 14.64 64.8904 17.856C64.8904 21.072 63.2344 23.112 60.6184 23.112C57.9064 23.112 56.2504 21.072 56.2504 17.832C56.2504 14.64 57.9544 12.576 60.5704 12.576ZM70.2824 11.664H68.7944V24.96C68.7944 27.36 68.2424 27.432 67.1384 27.432C66.9464 27.432 66.8264 27.432 66.5624 27.408V28.656C66.8984 28.704 67.0424 28.728 67.3064 28.728C70.0904 28.728 70.2824 27.168 70.2824 24.816V11.664ZM70.2824 6.816H68.7944V9.288H70.2824V6.816ZM74.6401 6.84H73.1281V9.312H74.6401V6.84ZM74.6401 11.664H73.1281V24H74.6401V11.664Z" fill="#282D32"/>
<path d="M84.2778 16.128H77.2458V18.672H84.2778V16.128ZM99.0539 6.912H87.2219V24H90.2459V16.536H97.9739V14.112H90.2459V9.456H99.0539V6.912ZM111.96 11.616H109.224V18.168C109.224 20.208 108.432 22.032 106.248 22.032C103.92 22.032 103.824 20.496 103.824 18.696V11.616H101.088V19.824C101.088 22.728 102.576 24.336 105.312 24.336C107.04 24.336 108.336 23.64 109.392 22.152V24H111.96V11.616ZM117.486 11.616H114.894V24H117.63V17.328C117.63 14.472 118.998 13.56 120.654 13.56C122.838 13.56 123.054 15.096 123.054 16.8V24H125.79V15.744C125.79 12.936 124.446 11.28 121.59 11.28C119.742 11.28 118.518 11.952 117.486 13.44V11.616ZM140.387 6.912H137.699V13.224C136.835 11.952 135.515 11.28 133.763 11.28C130.331 11.28 128.147 13.8 128.147 17.784C128.147 21.792 130.355 24.336 133.859 24.336C135.707 24.336 137.051 23.64 137.819 22.296V24H140.387V6.912ZM134.267 13.488C136.475 13.488 137.771 15.072 137.771 17.784C137.771 20.52 136.499 22.128 134.363 22.128C132.227 22.128 130.907 20.448 130.907 17.736C130.907 15.096 132.203 13.488 134.267 13.488Z" fill="#95B7F7"/>
</svg>
